<svg xmlns="http://www.w3.org/2000/svg" id="canvas" viewBox="403.817 285.728 1115.684 474.372"><path d="M 529.23,307.66 C 529.71 306.29, 530.10 304.35, 528.67 301.98 C 527.25 299.60, 525.90 298.06, 522.10 295.78 C 518.30 293.50, 515.33 291.99, 509.67 290.58 C 504.01 289.17, 500.55 288.64, 493.80 288.74 C 487.05 288.85, 483.22 288.96, 475.91 291.10 C 468.61 293.24, 464.33 294.76, 457.28 299.44 C 450.22 304.12, 446.83 307.27, 440.64 314.49 C 434.45 321.72, 431.39 326.01, 426.35 335.58 C 421.30 345.16, 418.93 350.68, 415.42 362.38 C 411.92 374.08, 410.55 380.79, 408.84 394.09 C 407.14 407.39, 406.62 414.59, 406.88 428.88 C 407.15 443.16, 407.80 450.85, 410.16 465.51 C 412.52 480.18, 414.47 488.02, 418.70 502.22 C 422.93 516.43, 425.60 523.51, 431.30 536.55 C 437.00 549.58, 440.28 556.17, 447.19 567.41 C 454.11 578.65, 458.17 584.13, 465.88 592.74 C 473.59 601.35, 477.64 604.69, 485.74 610.47 C 493.84 616.25, 498.03 618.41, 506.38 621.65 C 514.72 624.89, 519.21 625.93, 527.47 626.66 C 535.73 627.40, 540.08 627.20, 547.68 625.32 C 555.29 623.44, 558.90 621.60, 565.51 617.27 C 572.11 612.94, 575.44 610.15, 580.71 603.69 C 585.98 597.22, 588.30 593.42, 591.84 584.94 C 595.38 576.46, 596.99 571.05, 598.41 561.31 C 599.84 551.57, 600.04 546.45, 598.96 536.24 C 597.88 526.04, 596.31 520.43, 593.01 510.30 C 589.72 500.17, 587.34 494.84, 582.50 485.59 C 577.65 476.35, 574.45 471.62, 568.80 464.07 C 563.16 456.52, 559.68 452.99, 554.28 447.84 C 548.88 442.69, 546.05 440.82, 541.79 438.33 C 537.53 435.84, 535.57 435.12, 532.99 435.40 C 530.41 435.68, 529.09 437.47, 528.91 439.74 C 528.74 442.01, 529.53 444.02, 532.13 446.75 C 534.72 449.49, 537.74 450.82, 541.90 453.41 C 546.05 456.00, 548.77 457.56, 552.88 459.71 C 557.00 461.86, 559.20 463.06, 562.47 464.15 C 565.74 465.24, 567.71 465.45, 569.24 465.15 C 570.78 464.86, 571.07 463.87, 570.15 462.68 C 569.24 461.48, 567.55 460.81, 564.66 459.18 C 561.77 457.55, 559.58 456.76, 555.72 454.54 C 551.85 452.31, 549.18 450.64, 545.33 448.07 C 541.48 445.51, 539.12 443.51, 536.45 441.72 C 533.79 439.93, 532.73 439.64, 532.00 439.12 C 531.27 438.61, 531.21 438.66, 532.80 439.15 C 534.39 439.65, 536.03 439.43, 539.95 441.58 C 543.86 443.74, 546.97 445.14, 552.36 449.93 C 557.75 454.72, 561.26 458.18, 566.89 465.52 C 572.53 472.86, 575.72 477.53, 580.54 486.62 C 585.35 495.71, 587.71 501.00, 590.95 510.97 C 594.19 520.94, 595.71 526.48, 596.74 536.48 C 597.76 546.47, 597.52 551.46, 596.07 560.96 C 594.63 570.45, 593.00 575.75, 589.51 583.96 C 586.03 592.17, 583.76 595.81, 578.67 602.02 C 573.57 608.22, 570.34 610.86, 564.02 615.00 C 557.69 619.14, 554.31 620.90, 547.04 622.73 C 539.77 624.56, 535.65 624.80, 527.68 624.16 C 519.71 623.52, 515.34 622.60, 507.18 619.54 C 499.03 616.47, 494.89 614.43, 486.90 608.82 C 478.91 603.22, 474.89 599.98, 467.23 591.52 C 459.57 583.07, 455.51 577.66, 448.60 566.54 C 441.70 555.42, 438.42 548.87, 432.73 535.92 C 427.05 522.97, 424.38 515.91, 420.17 501.78 C 415.96 487.65, 414.03 479.85, 411.69 465.27 C 409.36 450.68, 408.73 443.04, 408.51 428.85 C 408.29 414.66, 408.83 407.50, 410.58 394.32 C 412.33 381.14, 413.74 374.48, 417.27 362.94 C 420.81 351.40, 423.21 345.97, 428.25 336.60 C 433.29 327.23, 436.37 323.06, 442.48 316.09 C 448.58 309.12, 451.92 306.14, 458.78 301.75 C 465.64 297.36, 469.76 295.98, 476.76 294.13 C 483.76 292.28, 487.45 292.30, 493.77 292.50 C 500.09 292.70, 503.35 293.46, 508.35 295.14 C 513.35 296.82, 515.76 298.76, 518.78 300.90 C 521.80 303.04, 521.95 304.25, 523.45 305.83 C 524.94 307.42, 525.09 308.45, 526.25 308.81 C 527.40 309.18, 528.74 309.02, 529.23 307.66" style="stroke: black; fill: black;"/><path d="M 733.20,467.19 C 733.05 465.70, 732.36 464.13, 730.26 462.19 C 728.16 460.25, 726.53 459.45, 722.70 457.51 C 718.87 455.57, 716.30 453.87, 711.10 452.50 C 705.90 451.13, 702.48 450.65, 696.70 450.64 C 690.93 450.62, 687.80 450.82, 682.20 452.42 C 676.61 454.02, 673.61 455.21, 668.73 458.63 C 663.85 462.05, 661.52 464.10, 657.81 469.52 C 654.09 474.93, 652.58 478.38, 650.16 485.72 C 647.73 493.05, 646.65 497.32, 645.68 506.20 C 644.71 515.07, 644.64 520.14, 645.29 530.09 C 645.94 540.05, 646.94 545.81, 648.94 555.99 C 650.95 566.16, 652.35 571.86, 655.33 580.98 C 658.30 590.09, 660.16 594.63, 663.83 601.57 C 667.50 608.52, 669.56 611.71, 673.68 615.71 C 677.80 619.71, 680.04 621.38, 684.42 621.57 C 688.80 621.76, 691.21 620.44, 695.58 616.67 C 699.94 612.90, 702.10 609.73, 706.25 602.72 C 710.40 595.72, 712.65 590.77, 716.33 581.65 C 720.01 572.53, 721.64 566.98, 724.63 557.12 C 727.63 547.27, 728.99 541.80, 731.33 532.37 C 733.66 522.94, 734.81 517.34, 736.30 509.96 C 737.79 502.59, 738.30 499.06, 738.77 495.48 C 739.24 491.90, 738.59 491.30, 738.64 492.06 C 738.70 492.83, 738.28 494.40, 739.05 499.31 C 739.81 504.22, 740.83 508.39, 742.47 516.62 C 744.12 524.85, 745.39 530.41, 747.26 540.46 C 749.13 550.51, 750.08 556.48, 751.81 566.87 C 753.55 577.25, 754.65 583.19, 755.93 592.41 C 757.20 601.62, 757.39 606.59, 758.19 612.94 C 758.99 619.29, 758.81 621.16, 759.91 624.14 C 761.02 627.12, 762.71 627.27, 763.72 627.83 C 764.72 628.39, 765.03 627.89, 764.95 626.94 C 764.86 625.99, 764.04 625.97, 763.30 623.08 C 762.56 620.19, 762.23 618.71, 761.26 612.51 C 760.29 606.30, 759.86 601.25, 758.44 592.04 C 757.02 582.83, 755.88 576.88, 754.17 566.48 C 752.47 556.07, 751.58 550.09, 749.92 540.00 C 748.25 529.90, 747.23 524.30, 745.84 516.00 C 744.46 507.71, 744.20 503.55, 742.99 498.53 C 741.78 493.50, 741.34 491.66, 739.78 490.88 C 738.22 490.10, 736.47 490.92, 735.19 494.63 C 733.92 498.34, 734.64 501.99, 733.39 509.42 C 732.13 516.86, 731.14 522.39, 728.93 531.79 C 726.72 541.19, 725.35 546.65, 722.33 556.42 C 719.31 566.18, 717.59 571.68, 713.84 580.62 C 710.08 589.56, 707.67 594.42, 703.56 601.10 C 699.45 607.78, 697.07 610.65, 693.27 614.03 C 689.47 617.42, 688.03 618.15, 684.56 618.02 C 681.09 617.90, 679.57 616.96, 675.91 613.41 C 672.24 609.86, 669.88 606.92, 666.22 600.28 C 662.57 593.64, 660.62 589.17, 657.62 580.22 C 654.63 571.27, 653.22 565.59, 651.24 555.53 C 649.26 545.48, 648.30 539.75, 647.72 529.94 C 647.14 520.14, 647.29 515.16, 648.35 506.51 C 649.42 497.86, 650.59 493.70, 653.04 486.70 C 655.49 479.69, 657.04 476.46, 660.60 471.47 C 664.16 466.47, 666.30 464.73, 670.83 461.70 C 675.36 458.66, 678.10 457.62, 683.26 456.29 C 688.41 454.96, 691.33 454.82, 696.61 455.05 C 701.88 455.28, 705.00 455.87, 709.62 457.43 C 714.23 459.00, 716.40 460.81, 719.68 462.88 C 722.97 464.94, 723.79 466.40, 726.06 467.75 C 728.34 469.11, 729.62 469.78, 731.05 469.67 C 732.47 469.55, 733.36 468.69, 733.20 467.19" style="stroke: black; fill: black;"/><path d="M 800.10,319.32 C 800.34 320.08, 800.82 319.33, 801.53 320.14 C 802.23 320.94, 802.37 320.45, 803.62 323.33 C 804.87 326.21, 806.30 327.92, 807.77 334.53 C 809.24 341.14, 809.62 346.05, 810.96 356.38 C 812.30 366.72, 812.83 373.10, 814.48 386.21 C 816.13 399.32, 817.03 407.20, 819.22 421.95 C 821.42 436.71, 822.94 444.78, 825.48 459.98 C 828.02 475.18, 829.37 483.28, 831.93 497.94 C 834.48 512.61, 835.73 520.51, 838.26 533.32 C 840.80 546.13, 842.48 552.36, 844.62 562.01 C 846.76 571.66, 847.64 575.97, 848.98 581.57 C 850.31 587.18, 850.50 588.43, 851.31 590.04 C 852.13 591.65, 853.06 591.42, 853.05 589.62 C 853.04 587.82, 852.54 586.65, 851.26 581.04 C 849.98 575.42, 848.91 571.16, 846.65 561.54 C 844.38 551.93, 842.57 545.76, 839.93 532.98 C 837.29 520.21, 836.04 512.33, 833.45 497.68 C 830.86 483.03, 829.51 474.92, 827.00 459.73 C 824.49 444.54, 822.99 436.46, 820.88 421.71 C 818.77 406.96, 817.92 399.10, 816.45 385.98 C 814.99 372.85, 814.54 366.51, 813.55 356.09 C 812.56 345.67, 812.37 340.90, 811.51 333.89 C 810.65 326.88, 810.64 324.62, 809.23 321.03 C 807.82 317.44, 806.25 316.90, 804.47 315.95 C 802.70 315.01, 801.22 315.64, 800.35 316.32 C 799.48 316.99, 799.87 318.55, 800.10 319.32" style="stroke: black; fill: black;"/><path d="M 884.67,543.83 C 885.24 545.08, 886.18 545.95, 888.52 546.92 C 890.86 547.88, 892.59 548.87, 896.38 548.66 C 900.17 548.46, 902.73 547.70, 907.48 545.87 C 912.24 544.04, 914.95 542.59, 920.13 539.52 C 925.32 536.46, 928.10 534.71, 933.43 530.55 C 938.75 526.39, 941.57 523.46, 946.76 518.74 C 951.94 514.02, 954.91 511.73, 959.36 506.95 C 963.80 502.18, 965.72 499.73, 969.00 494.87 C 972.28 490.02, 973.65 487.58, 975.77 482.68 C 977.89 477.78, 978.96 475.31, 979.59 470.36 C 980.22 465.41, 980.36 462.46, 978.93 457.94 C 977.51 453.42, 975.86 450.89, 972.48 447.79 C 969.10 444.68, 966.54 443.76, 962.03 442.40 C 957.52 441.05, 954.98 440.96, 949.93 441.02 C 944.88 441.07, 941.82 441.18, 936.79 442.70 C 931.76 444.22, 929.20 445.42, 924.77 448.62 C 920.34 451.82, 918.32 453.87, 914.65 458.70 C 910.97 463.52, 909.02 466.38, 906.39 472.75 C 903.75 479.12, 902.80 482.88, 901.47 490.54 C 900.15 498.20, 899.95 502.60, 899.77 511.06 C 899.60 519.52, 899.55 524.17, 900.61 532.85 C 901.67 541.53, 902.69 546.13, 905.07 554.44 C 907.46 562.75, 909.06 567.04, 912.53 574.40 C 915.99 581.77, 917.93 585.31, 922.41 591.25 C 926.88 597.19, 929.50 599.78, 934.89 604.09 C 940.28 608.41, 943.26 610.37, 949.37 612.84 C 955.47 615.32, 959.10 616.03, 965.41 616.46 C 971.73 616.88, 974.82 616.48, 980.96 614.97 C 987.10 613.46, 990.25 612.22, 996.12 608.90 C 1001.98 605.59, 1004.92 603.22, 1010.27 598.41 C 1015.62 593.59, 1018.43 590.04, 1022.88 584.83 C 1027.33 579.62, 1029.46 576.70, 1032.52 572.36 C 1035.59 568.01, 1037.56 565.26, 1038.23 563.09 C 1038.89 560.92, 1037.56 560.08, 1035.84 561.51 C 1034.12 562.95, 1032.77 566.06, 1029.64 570.26 C 1026.51 574.47, 1024.50 577.40, 1020.18 582.53 C 1015.85 587.66, 1013.16 591.22, 1008.01 595.92 C 1002.87 600.61, 1000.04 602.84, 994.47 605.99 C 988.89 609.13, 985.91 610.23, 980.15 611.64 C 974.38 613.05, 971.55 613.42, 965.64 613.05 C 959.72 612.68, 956.35 612.07, 950.59 609.80 C 944.82 607.53, 941.97 605.75, 936.79 601.70 C 931.61 597.64, 929.05 595.21, 924.69 589.52 C 920.33 583.82, 918.40 580.40, 914.99 573.24 C 911.57 566.07, 909.97 561.85, 907.62 553.71 C 905.28 545.56, 904.27 541.05, 903.27 532.53 C 902.26 524.02, 902.35 519.42, 902.60 511.13 C 902.84 502.84, 903.12 498.50, 904.51 491.09 C 905.90 483.68, 906.91 480.10, 909.54 474.09 C 912.16 468.08, 914.11 465.44, 917.63 461.03 C 921.16 456.61, 923.09 454.82, 927.17 452.02 C 931.25 449.22, 933.49 448.29, 938.05 447.04 C 942.60 445.78, 945.44 445.76, 949.96 445.76 C 954.48 445.76, 956.80 445.92, 960.65 447.05 C 964.50 448.17, 966.45 448.92, 969.21 451.39 C 971.97 453.86, 973.26 455.68, 974.47 459.37 C 975.68 463.07, 975.73 465.49, 975.26 469.85 C 974.79 474.20, 973.97 476.55, 972.11 481.15 C 970.25 485.75, 969.03 488.17, 965.97 492.86 C 962.91 497.54, 961.11 499.92, 956.80 504.58 C 952.49 509.24, 949.55 511.56, 944.42 516.16 C 939.30 520.77, 936.46 523.68, 931.18 527.61 C 925.91 531.54, 923.14 533.16, 918.06 535.79 C 912.98 538.43, 910.15 539.58, 905.79 540.78 C 901.43 541.98, 899.38 541.90, 896.28 541.79 C 893.17 541.69, 892.41 540.48, 890.28 540.26 C 888.16 540.04, 886.77 539.98, 885.65 540.70 C 884.53 541.41, 884.10 542.59, 884.67 543.83" style="stroke: black; fill: black;"/><path d="M 1062.77,499.79 C 1062.11 500.95, 1062.11 501.87, 1062.36 504.87 C 1062.60 507.86, 1063.44 509.83, 1064.01 514.75 C 1064.59 519.67, 1064.82 522.88, 1065.23 529.48 C 1065.64 536.07, 1065.67 540.14, 1066.05 547.72 C 1066.44 555.29, 1066.85 559.92, 1067.15 567.36 C 1067.45 574.79, 1067.33 579.42, 1067.56 584.90 C 1067.78 590.38, 1067.64 592.80, 1068.27 594.75 C 1068.89 596.71, 1070.44 596.44, 1070.67 594.67 C 1070.90 592.90, 1069.94 590.89, 1069.42 585.91 C 1068.90 580.94, 1068.31 576.94, 1068.06 569.79 C 1067.81 562.64, 1067.79 558.03, 1068.17 550.15 C 1068.56 542.27, 1068.83 537.78, 1069.99 530.39 C 1071.16 523.00, 1072.04 519.52, 1074.00 513.19 C 1075.96 506.87, 1077.18 504.08, 1079.79 498.76 C 1082.40 493.45, 1083.79 490.92, 1087.04 486.63 C 1090.30 482.34, 1092.07 480.70, 1096.07 477.31 C 1100.08 473.92, 1102.35 472.36, 1107.07 469.70 C 1111.78 467.04, 1114.51 465.73, 1119.65 464.01 C 1124.79 462.28, 1127.72 461.75, 1132.77 461.09 C 1137.82 460.44, 1140.39 460.63, 1144.88 460.73 C 1149.36 460.82, 1153.04 462.06, 1155.18 461.56 C 1157.33 461.05, 1157.63 459.23, 1155.61 458.20 C 1153.58 457.17, 1149.73 456.67, 1145.05 456.40 C 1140.36 456.13, 1137.54 456.12, 1132.20 456.87 C 1126.86 457.62, 1123.75 458.27, 1118.33 460.14 C 1112.91 462.02, 1110.06 463.40, 1105.11 466.25 C 1100.15 469.10, 1097.77 470.74, 1093.57 474.38 C 1089.37 478.02, 1087.47 479.85, 1084.10 484.44 C 1080.74 489.02, 1079.36 491.73, 1076.74 497.30 C 1074.12 502.86, 1072.95 505.76, 1070.99 512.28 C 1069.04 518.80, 1068.19 522.37, 1066.96 529.91 C 1065.74 537.44, 1065.48 541.95, 1064.87 549.94 C 1064.26 557.93, 1063.97 562.53, 1063.91 569.85 C 1063.85 577.16, 1063.85 581.32, 1064.57 586.51 C 1065.30 591.69, 1066.08 594.09, 1067.53 595.78 C 1068.99 597.47, 1071.00 597.15, 1071.84 594.93 C 1072.67 592.72, 1071.95 590.27, 1071.70 584.72 C 1071.45 579.17, 1071.03 574.61, 1070.58 567.18 C 1070.14 559.75, 1069.74 555.14, 1069.48 547.57 C 1069.22 540.00, 1069.35 535.97, 1069.28 529.33 C 1069.22 522.69, 1069.31 519.47, 1069.16 514.38 C 1069.01 509.29, 1069.24 506.95, 1068.54 503.89 C 1067.83 500.83, 1066.79 499.89, 1065.63 499.07 C 1064.48 498.25, 1063.43 498.63, 1062.77 499.79" style="stroke: black; fill: black;"/><path d="M 1202.30,488.01 C 1202.13 489.81, 1203.49 491.60, 1204.47 496.00 C 1205.45 500.41, 1206.31 503.15, 1207.21 510.02 C 1208.11 516.90, 1208.53 521.95, 1208.97 530.39 C 1209.41 538.83, 1209.35 543.33, 1209.41 552.22 C 1209.47 561.11, 1209.47 566.31, 1209.26 574.85 C 1209.04 583.40, 1208.64 588.43, 1208.33 594.93 C 1208.02 601.43, 1207.23 604.05, 1207.70 607.37 C 1208.17 610.69, 1209.29 610.79, 1210.68 611.54 C 1212.07 612.28, 1213.37 611.98, 1214.64 611.10 C 1215.90 610.21, 1217.45 608.32, 1217.01 607.10 C 1216.58 605.87, 1213.63 604.64, 1212.47 604.96 C 1211.31 605.27, 1211.33 607.62, 1211.22 608.66 C 1211.11 609.70, 1211.73 610.49, 1211.93 610.16 C 1212.13 609.83, 1212.27 610.04, 1212.23 607.01 C 1212.19 603.98, 1211.78 601.43, 1211.75 595.01 C 1211.72 588.58, 1212.00 583.46, 1212.09 574.90 C 1212.18 566.34, 1212.18 561.14, 1212.18 552.21 C 1212.18 543.28, 1212.36 538.79, 1212.10 530.26 C 1211.85 521.74, 1211.62 516.64, 1210.92 509.60 C 1210.22 502.55, 1209.72 499.55, 1208.60 495.03 C 1207.48 490.51, 1206.58 488.39, 1205.32 486.99 C 1204.06 485.58, 1202.47 486.21, 1202.30 488.01" style="stroke: black; fill: black;"/><path d="M 1206.41,351.05 C 1207.81 351.44, 1209.52 350.82, 1210.79 349.83 C 1212.05 348.84, 1212.75 347.47, 1212.74 346.12 C 1212.73 344.76, 1212.05 343.57, 1210.74 343.07 C 1209.43 342.56, 1207.59 342.64, 1206.21 343.60 C 1204.83 344.56, 1203.79 346.38, 1203.83 347.87 C 1203.87 349.36, 1205.02 350.66, 1206.41 351.05" style="stroke: black; fill: black;"/><path d="M 1334.98,474.34 C 1334.97 475.62, 1336.02 475.95, 1337.23 478.95 C 1338.45 481.96, 1339.60 483.43, 1341.06 489.37 C 1342.51 495.30, 1343.37 499.58, 1344.53 508.62 C 1345.68 517.65, 1345.86 522.87, 1346.84 534.55 C 1347.82 546.22, 1348.26 553.28, 1349.42 567.00 C 1350.58 580.73, 1351.45 588.62, 1352.64 603.18 C 1353.84 617.73, 1354.67 625.60, 1355.37 639.78 C 1356.07 653.95, 1356.16 661.42, 1356.14 674.05 C 1356.13 686.68, 1356.17 692.81, 1355.31 702.93 C 1354.46 713.05, 1353.55 717.13, 1351.89 724.63 C 1350.22 732.13, 1349.05 735.28, 1346.99 740.44 C 1344.94 745.60, 1343.50 748.02, 1341.62 750.44 C 1339.74 752.86, 1339.04 752.98, 1337.59 752.54 C 1336.14 752.09, 1335.64 750.18, 1334.37 748.22 C 1333.09 746.25, 1332.68 744.77, 1331.23 742.70 C 1329.78 740.63, 1328.63 738.57, 1327.13 737.87 C 1325.62 737.18, 1324.27 737.51, 1323.70 739.21 C 1323.13 740.91, 1323.16 743.62, 1324.27 746.38 C 1325.38 749.14, 1326.67 750.87, 1329.24 753.01 C 1331.81 755.15, 1333.99 757.08, 1337.13 757.10 C 1340.27 757.12, 1342.38 756.24, 1344.96 753.12 C 1347.53 750.01, 1348.13 747.13, 1349.99 741.53 C 1351.85 735.93, 1352.80 732.80, 1354.26 725.11 C 1355.72 717.43, 1356.57 713.30, 1357.30 703.08 C 1358.02 692.87, 1357.94 686.72, 1357.89 674.04 C 1357.83 661.37, 1357.72 653.90, 1357.01 639.70 C 1356.29 625.50, 1355.46 617.61, 1354.30 603.04 C 1353.15 588.48, 1352.30 580.59, 1351.24 566.86 C 1350.18 553.12, 1349.79 546.09, 1349.03 534.38 C 1348.26 522.67, 1348.21 517.47, 1347.40 508.31 C 1346.59 499.14, 1346.08 494.84, 1344.99 488.55 C 1343.91 482.26, 1343.52 480.05, 1341.97 476.85 C 1340.43 473.65, 1338.68 473.05, 1337.28 472.54 C 1335.88 472.04, 1334.98 473.06, 1334.98 474.34" style="stroke: black; fill: black;"/><path d="M 1321.04,357.82 C 1320.00 358.42, 1319.94 359.16, 1319.76 359.53 C 1319.59 359.90, 1319.92 359.70, 1320.18 359.66 C 1320.44 359.61, 1320.84 359.41, 1321.07 359.30 C 1321.30 359.20, 1321.81 358.61, 1321.31 359.12 C 1320.81 359.63, 1319.07 360.82, 1318.56 361.86 C 1318.05 362.90, 1317.95 364.31, 1318.74 364.30 C 1319.53 364.28, 1322.05 362.30, 1322.51 361.79 C 1322.97 361.28, 1321.57 361.04, 1321.04 361.74 C 1320.51 362.44, 1319.44 364.57, 1319.86 365.30 C 1320.28 366.02, 1321.90 365.83, 1323.14 365.37 C 1324.38 364.92, 1325.15 364.24, 1326.08 363.03 C 1327.00 361.81, 1328.00 360.61, 1327.78 359.31 C 1327.56 358.00, 1326.33 356.78, 1324.98 356.49 C 1323.63 356.19, 1322.08 357.21, 1321.04 357.82" style="stroke: black; fill: black;"/><path d="M 1488.88,479.20 C 1489.36 477.91, 1489.98 476.19, 1488.56 473.86 C 1487.14 471.52, 1485.46 469.95, 1481.78 467.52 C 1478.10 465.09, 1475.47 463.28, 1470.17 461.70 C 1464.86 460.12, 1461.28 459.57, 1455.25 459.61 C 1449.22 459.64, 1445.68 459.67, 1440.02 461.87 C 1434.35 464.07, 1431.62 466.07, 1426.94 470.61 C 1422.26 475.15, 1420.04 478.26, 1416.62 484.58 C 1413.20 490.89, 1411.70 494.71, 1409.84 502.18 C 1407.99 509.64, 1407.53 513.96, 1407.34 521.91 C 1407.16 529.87, 1407.60 534.10, 1408.93 541.95 C 1410.26 549.80, 1411.31 554.01, 1413.98 561.16 C 1416.65 568.31, 1418.60 571.98, 1422.30 577.69 C 1426.01 583.40, 1428.18 585.95, 1432.50 589.72 C 1436.82 593.49, 1439.05 595.26, 1443.89 596.55 C 1448.74 597.84, 1451.83 597.82, 1456.73 596.16 C 1461.63 594.50, 1464.22 592.59, 1468.39 588.23 C 1472.57 583.87, 1474.34 580.88, 1477.60 574.35 C 1480.87 567.82, 1482.56 563.54, 1484.71 555.58 C 1486.85 547.61, 1487.36 542.83, 1488.31 534.54 C 1489.27 526.24, 1489.31 521.44, 1489.49 514.11 C 1489.67 506.79, 1489.44 502.86, 1489.23 497.90 C 1489.02 492.95, 1489.02 491.00, 1488.43 489.35 C 1487.84 487.70, 1486.30 487.65, 1486.26 489.64 C 1486.22 491.63, 1487.02 493.63, 1488.25 499.30 C 1489.48 504.98, 1490.44 509.45, 1492.42 518.02 C 1494.39 526.60, 1495.69 532.44, 1498.11 542.19 C 1500.54 551.95, 1502.19 557.88, 1504.55 566.78 C 1506.91 575.69, 1508.00 580.43, 1509.91 586.71 C 1511.83 592.99, 1512.81 596.07, 1514.12 598.20 C 1515.43 600.33, 1516.78 599.81, 1516.45 597.36 C 1516.12 594.91, 1514.32 592.20, 1512.46 585.94 C 1510.61 579.69, 1509.50 574.97, 1507.16 566.09 C 1504.83 557.21, 1503.08 551.30, 1500.80 541.55 C 1498.52 531.79, 1497.43 525.94, 1495.77 517.32 C 1494.10 508.69, 1493.69 504.19, 1492.47 498.40 C 1491.26 492.62, 1491.13 490.26, 1489.70 488.40 C 1488.26 486.53, 1486.21 487.13, 1485.30 489.07 C 1484.39 491.01, 1484.94 493.07, 1485.14 498.07 C 1485.33 503.07, 1486.23 506.86, 1486.28 514.08 C 1486.33 521.31, 1486.28 526.07, 1485.38 534.20 C 1484.47 542.34, 1483.92 547.05, 1481.76 554.77 C 1479.61 562.50, 1477.82 566.65, 1474.60 572.82 C 1471.38 578.99, 1469.52 581.70, 1465.68 585.61 C 1461.85 589.51, 1459.59 590.93, 1455.43 592.36 C 1451.28 593.79, 1449.01 593.85, 1444.89 592.77 C 1440.77 591.70, 1438.81 590.38, 1434.84 587.01 C 1430.86 583.63, 1428.62 581.29, 1425.00 575.91 C 1421.39 570.53, 1419.42 566.99, 1416.77 560.10 C 1414.13 553.21, 1413.08 549.09, 1411.78 541.47 C 1410.48 533.84, 1410.06 529.69, 1410.27 521.99 C 1410.48 514.28, 1410.98 510.10, 1412.83 502.93 C 1414.67 495.76, 1416.18 492.11, 1419.49 486.15 C 1422.80 480.18, 1424.98 477.27, 1429.35 473.12 C 1433.72 468.97, 1436.17 467.26, 1441.34 465.42 C 1446.51 463.57, 1449.74 463.66, 1455.18 463.89 C 1460.61 464.12, 1463.93 464.80, 1468.51 466.57 C 1473.09 468.34, 1475.11 470.45, 1478.07 472.74 C 1481.02 475.03, 1481.66 476.49, 1483.28 478.01 C 1484.90 479.53, 1485.03 480.10, 1486.15 480.34 C 1487.27 480.57, 1488.39 480.50, 1488.88 479.20" style="stroke: black; fill: black;"/></svg>