<?xml version="1.0" standalone="no"?>
<!DOCTYPE svg PUBLIC "-//W3C//DTD SVG 20010904//EN"
 "http://www.w3.org/TR/2001/REC-SVG-20010904/DTD/svg10.dtd">
<svg version="1.0" xmlns="http://www.w3.org/2000/svg"
 width="1440.000000pt" height="800.000000pt" viewBox="0 0 1440.000000 800.000000"
 preserveAspectRatio="xMidYMid meet">

<g transform="translate(0.000000,800.000000) scale(0.100000,-0.100000)"
fill="#000000" stroke="none">
<path d="M290 7864 c-28 -26 -50 -55 -50 -64 0 -10 51 -278 114 -597 113 -572
114 -579 110 -693 -4 -110 -1 -139 94 -680 l98 -565 -22 -190 c-14 -118 -67
-422 -139 -800 -64 -335 -133 -698 -154 -805 l-37 -195 -56 -8 -56 -9 -6 -45
c-12 -89 -9 -103 21 -103 14 0 34 -7 44 -15 14 -13 15 -23 7 -55 -9 -34 -14
-39 -41 -42 -38 -4 -45 -22 -46 -125 -1 -68 0 -72 23 -75 l23 -3 -76 -330 -77
-330 46 -7 c25 -3 83 -7 130 -7 47 -1 123 -8 170 -16 111 -19 110 -20 111 13
l1 27 7 -30 c6 -28 10 -30 81 -42 41 -7 95 -16 120 -18 25 -3 130 -20 233 -37
l188 -32 -6 -28 c-6 -26 -3 -29 70 -65 l75 -38 112 23 c61 13 112 21 114 20 2
-2 37 -207 79 -456 41 -249 80 -462 85 -475 12 -28 30 -153 30 -204 0 -22 4
-43 10 -49 5 -5 12 -41 14 -79 6 -74 29 -205 40 -223 3 -6 35 -20 70 -32 59
-19 66 -20 97 -5 21 9 25 14 12 11 -27 -5 -27 -3 -48 129 -9 55 -36 210 -60
345 -51 279 -65 357 -100 560 -63 362 -117 668 -125 705 -10 47 -7 50 61 59
27 4 55 9 63 12 10 4 16 -7 21 -38 3 -24 21 -126 40 -228 18 -102 48 -270 66
-375 18 -104 36 -200 40 -212 l8 -21 78 22 c43 13 281 73 528 135 248 62 536
136 640 166 105 30 222 61 260 70 39 8 79 18 90 21 19 5 19 4 2 -9 -23 -19
-24 -38 -4 -112 11 -41 13 -61 6 -66 -7 -4 4 -55 34 -150 25 -79 63 -199 83
-265 l37 -122 36 -6 c20 -3 51 -6 69 -6 28 0 31 3 23 18 -5 9 -22 62 -36 117
-15 55 -42 150 -60 210 -18 61 -54 182 -80 270 -106 358 -226 764 -246 824
-11 35 -16 67 -12 71 12 12 105 61 107 58 2 -2 12 -41 25 -88 47 -182 144
-520 148 -516 3 2 -32 138 -76 303 -45 164 -81 305 -81 313 0 8 14 29 32 47
l32 33 -30 -10 c-16 -5 -108 -23 -204 -40 -198 -35 -423 -76 -520 -94 -50 -10
-65 -17 -64 -30 1 -9 -2 -16 -7 -16 -5 0 -9 5 -9 12 0 9 -3 9 -12 0 -20 -20
-24 -14 -23 33 0 29 5 49 15 55 29 18 26 147 -6 263 -35 131 -49 165 -57 143
-6 -16 8 -106 38 -240 8 -38 14 -74 12 -80 -4 -12 -50 181 -67 279 -6 39 -18
98 -26 132 -18 79 -18 103 0 103 15 0 32 37 22 47 -3 4 -6 0 -6 -8 0 -11 -2
-11 -10 1 -5 8 -9 24 -9 35 l0 20 9 -20 9 -20 0 20 c0 11 -3 37 -8 58 -14 59
4 43 22 -20 18 -62 67 -266 67 -277 0 -4 -5 -4 -12 0 -8 5 -9 0 -4 -17 4 -13
13 -52 21 -86 7 -34 18 -79 24 -100 6 -21 11 -55 11 -75 0 -21 4 -38 9 -38 4
0 6 10 4 23 -4 20 0 23 29 25 18 1 76 9 128 17 52 9 159 24 238 34 79 10 146
21 149 24 7 7 -9 70 -51 197 -65 198 -106 336 -106 356 0 14 11 24 35 33 19 7
41 19 49 27 13 12 15 10 21 -16 9 -40 25 -38 25 3 0 17 3 48 6 68 l6 37 77 12
c132 20 121 12 121 96 0 52 4 74 13 75 6 0 62 9 122 19 122 20 93 25 -60 10
-55 -6 -179 -17 -275 -25 -771 -64 -840 -70 -1155 -95 -69 -6 -155 -10 -191
-10 l-65 0 2 43 c3 47 11 57 53 57 16 0 27 3 24 6 -3 3 -45 2 -93 -2 -47 -4
-82 -10 -76 -13 6 -4 12 -24 13 -44 3 -40 7 -44 26 -25 9 9 12 9 12 1 0 -19
-18 -25 -76 -28 -45 -3 -56 0 -65 16 -5 11 -7 24 -4 29 3 6 -1 10 -9 10 -9 0
-16 -7 -16 -15 0 -8 -5 -15 -11 -15 -6 0 -9 -9 -6 -19 5 -22 -16 -31 -75 -31
-40 0 -38 -2 -53 73 -2 9 1 17 6 17 5 0 9 5 9 11 0 6 -7 9 -15 5 -8 -3 -14 -2
-13 2 1 4 -2 22 -6 40 -5 20 -4 38 3 46 21 25 -36 6 -60 -20 -27 -29 -44 -31
-29 -4 13 23 14 23 -70 5 -91 -19 -157 -3 -128 32 6 7 6 13 1 13 -7 0 -21 67
-39 195 -1 11 -11 54 -22 95 -38 150 -48 237 -29 267 7 11 -16 102 -34 136 -6
11 -5 17 2 17 7 0 8 7 4 18 -3 9 -8 33 -11 52 -2 19 -9 36 -14 38 -15 5 -33
71 -22 85 15 20 22 47 12 47 -6 0 -10 -10 -10 -22 l0 -22 -15 22 c-9 12 -22
54 -30 94 -14 70 -42 198 -71 323 -8 33 -16 75 -18 92 -3 18 -9 41 -15 51 -5
10 -9 24 -8 32 1 8 -4 40 -11 70 -15 64 -32 146 -68 320 -14 69 -35 166 -46
215 -32 147 -37 193 -20 200 22 8 32 6 32 -9 0 -19 26 -40 35 -26 3 5 -9 24
-27 40 -24 22 -28 30 -15 30 25 0 32 -4 29 -14 -4 -11 17 -26 36 -26 9 0 10 5
3 19 -6 10 -8 21 -5 23 2 3 -2 20 -9 38 -11 26 -15 29 -21 15 -5 -13 -9 -15
-20 -6 -16 13 -10 50 8 53 34 4 42 3 54 -5 8 -7 12 -5 12 7 0 9 4 16 10 16 5
0 7 6 4 14 -3 7 1 16 9 19 9 3 14 -1 13 -11 -1 -13 6 -16 30 -14 21 2 33 -2
37 -13 4 -8 11 -15 17 -15 6 0 8 5 5 10 -3 6 -1 10 4 10 6 0 11 -8 11 -17 0
-9 3 -14 6 -10 4 3 3 14 -1 24 -11 26 -11 63 0 61 10 -3 16 -19 18 -50 2 -21
17 -13 17 9 0 13 3 13 15 3 15 -12 20 -4 16 23 0 4 4 7 9 7 6 0 10 10 11 23
l0 22 10 -23 c5 -13 13 -20 19 -17 6 3 13 -1 16 -10 4 -9 12 -14 19 -11 7 2
18 -7 26 -20 10 -20 10 -29 1 -44 -7 -11 -12 -25 -12 -32 0 -10 3 -9 9 1 9 14
12 10 46 -54 6 -11 20 -20 32 -21 19 -1 20 2 12 26 -6 15 -9 33 -7 41 2 8 -3
13 -12 11 -8 -2 -12 -1 -9 2 6 6 -10 28 -73 98 -31 34 -37 65 -13 65 10 0 12
-4 6 -10 -12 -12 -3 -37 15 -37 8 0 14 -5 14 -11 0 -5 5 -7 10 -4 6 3 10 -5
10 -19 0 -14 5 -28 12 -32 8 -5 9 -2 5 10 -4 10 -3 15 3 11 6 -3 10 -12 10
-20 0 -8 5 -17 12 -21 8 -5 9 -1 5 12 -7 18 -6 18 6 2 8 -10 18 -14 22 -10 5
4 5 1 1 -6 -4 -7 -12 -10 -17 -7 -5 4 -9 2 -9 -4 0 -21 19 -20 34 1 9 12 16
20 17 18 0 -3 2 -14 3 -25 1 -12 19 -37 39 -58 38 -38 44 -51 27 -62 -6 -4 -8
-15 -5 -26 9 -28 -20 -14 -40 19 l-16 27 20 -24 c23 -26 29 -7 7 22 -17 23
-32 22 -39 -3 -3 -10 0 -18 5 -17 6 1 13 -4 16 -12 3 -8 0 -11 -7 -7 -7 5 -9
1 -5 -8 3 -9 10 -14 14 -11 5 3 12 0 16 -6 5 -8 3 -9 -6 -4 -9 6 -10 1 -6 -16
7 -23 7 -23 -8 -5 -9 11 -16 24 -16 30 0 5 -2 7 -5 4 -3 -3 5 -27 19 -54 14
-27 21 -51 15 -52 -6 -3 -5 -10 3 -20 10 -11 10 -16 1 -19 -7 -2 -9 -11 -6
-20 5 -11 3 -14 -6 -8 -11 6 -11 3 -1 -16 18 -34 24 -38 17 -11 -3 12 -1 22 4
22 4 0 5 7 2 17 -4 11 -3 14 5 9 8 -5 10 -2 6 8 -4 9 -1 16 6 16 9 0 10 3 1
13 -6 8 -13 31 -16 52 -4 36 -3 37 11 19 14 -18 15 -18 5 3 -6 12 -11 24 -11
27 0 5 41 -1 44 -6 1 -2 7 -15 13 -29 13 -30 43 -36 35 -7 -2 10 0 18 6 18 11
0 27 -58 18 -67 -3 -3 2 -19 10 -35 9 -17 11 -27 5 -24 -16 10 -13 -5 5 -25
17 -19 10 -44 -9 -33 -7 4 -1 -5 12 -19 14 -15 27 -27 29 -27 3 0 -2 8 -11 18
-10 10 -14 22 -10 25 8 9 44 -44 37 -54 -2 -5 5 -6 16 -4 13 2 24 -4 31 -17
10 -19 12 -20 21 -5 5 10 6 23 2 30 -6 9 -5 9 7 0 15 -12 19 -13 45 -13 9 0
12 -5 8 -12 -4 -7 -3 -8 4 -4 11 6 16 -5 14 -25 -1 -4 8 -5 19 -2 11 3 17 9
12 12 -4 3 -17 17 -28 30 -21 26 -21 26 30 5 11 -4 15 0 15 15 0 20 -14 29
-23 14 -2 -5 -2 -2 0 6 2 10 -4 12 -22 7 -15 -4 -25 -2 -25 4 0 6 -5 8 -10 5
-6 -4 -8 -9 -6 -13 2 -4 -2 -12 -9 -19 -9 -9 -16 -3 -29 25 -9 21 -11 30 -4
22 7 -8 19 -16 26 -18 17 -3 27 27 13 41 -23 23 -10 25 16 1 15 -14 33 -22 40
-19 8 2 12 1 9 -4 -3 -5 1 -12 10 -15 10 -4 13 -2 8 6 -5 7 -2 9 8 5 11 -4 16
1 16 19 0 13 -4 21 -9 18 -5 -3 -9 2 -9 11 0 10 -5 13 -12 9 -7 -4 -8 -3 -4 4
4 6 -3 35 -15 64 -23 55 -45 89 -34 53 4 -15 2 -14 -7 3 -7 15 -18 22 -30 19
-11 -3 -18 0 -18 10 0 8 5 11 10 8 6 -3 10 0 10 7 0 9 3 9 10 -2 7 -10 10 -11
10 -2 0 7 -7 15 -15 18 -18 7 -20 35 -2 53 10 11 9 12 -2 6 -10 -6 -12 -4 -6
4 4 8 -2 25 -14 42 -16 22 -18 29 -7 29 7 0 16 -9 19 -21 3 -12 10 -18 16 -14
6 3 9 0 5 -8 -3 -8 -1 -18 5 -22 6 -3 11 -2 11 4 0 6 8 8 18 4 16 -6 15 -5 -1
15 -11 11 -16 25 -13 31 4 5 1 13 -5 17 -8 5 -9 3 -4 -6 5 -9 4 -11 -4 -6 -6
4 -9 12 -5 17 3 5 10 7 15 4 14 -9 10 7 -6 29 -16 21 -6 50 20 60 9 3 14 2 10
-3 -3 -5 0 -11 7 -13 8 -3 4 -12 -9 -25 -20 -20 -20 -23 -5 -35 14 -11 15 -11
9 6 -6 14 -4 17 8 12 9 -3 13 -2 10 4 -3 6 -1 10 4 10 6 0 11 -5 11 -10 0 -6
6 -5 14 2 7 7 12 18 10 23 -3 6 10 16 28 23 l32 12 -26 27 c-14 16 -23 34 -21
41 3 6 0 12 -5 12 -5 0 -13 -12 -16 -26 -5 -17 -12 -24 -21 -20 -10 3 -12 0
-8 -12 6 -15 5 -15 -11 -3 -15 13 -19 13 -27 0 -8 -11 -9 -10 -7 6 2 12 -4 21
-16 23 -14 3 -17 0 -13 -13 4 -10 3 -14 -4 -9 -6 4 -16 0 -21 -7 -8 -11 -9
-10 -5 3 3 9 1 19 -6 22 -9 3 -9 5 1 5 6 1 12 10 12 22 0 13 4 18 12 13 8 -5
9 -2 4 11 -5 15 -4 16 9 5 9 -8 15 -8 15 -2 0 6 -5 14 -11 17 -6 4 -8 13 -5
20 2 7 -2 21 -10 32 -11 14 -13 14 -8 2 4 -13 -1 -16 -23 -16 -25 2 -28 5 -29
40 -1 39 -13 62 -21 40 -3 -7 -9 -13 -15 -13 -6 0 -8 6 -5 13 3 8 -1 14 -9 14
-8 0 -14 -10 -14 -21 -1 -16 -5 -13 -19 15 -26 52 -32 71 -21 64 6 -3 10 -2
10 4 0 5 9 13 20 16 11 4 18 10 16 13 -2 4 7 12 20 19 27 12 29 10 14 -18 -7
-11 -7 -19 -1 -19 5 0 12 6 14 13 4 9 8 8 16 -3 5 -8 13 -11 17 -7 4 4 2 13
-4 19 -19 19 -15 26 29 49 23 11 51 29 62 40 12 10 26 19 31 19 13 0 65 39 53
40 -4 0 -27 -10 -50 -22 -23 -12 -57 -20 -74 -19 -27 1 -32 -1 -27 -16 3 -10
-1 -7 -9 6 -11 19 -15 20 -20 8 -3 -9 -1 -17 4 -19 6 -2 7 -11 4 -20 -7 -17
-50 -32 -65 -23 -6 4 -10 1 -10 -4 0 -6 -7 -11 -15 -11 -8 0 -15 6 -15 13 0 8
-3 9 -8 1 -9 -14 -52 -37 -58 -31 -3 3 6 17 20 32 15 16 26 35 26 44 -1 15 -2
15 -13 0 -7 -9 -18 -14 -24 -12 -16 6 -17 23 -2 23 7 0 18 8 26 18 8 9 12 11
8 5 -4 -9 2 -13 19 -13 14 0 26 5 26 11 0 6 -7 9 -15 5 -8 -3 -15 -1 -15 4 0
6 -6 10 -14 10 -17 0 -38 24 -29 34 12 11 10 47 -2 43 -6 -3 -12 4 -12 15 -2
16 3 19 23 15 18 -3 24 -1 20 9 -8 22 4 43 21 37 8 -3 18 -15 23 -27 8 -20 8
-20 15 -2 5 11 3 21 -6 27 -10 6 -10 9 -2 9 7 0 19 15 27 33 l15 32 -6 -34
c-4 -24 -3 -32 5 -27 7 4 12 15 13 24 0 14 2 14 10 -3 8 -18 9 -17 6 6 -2 14
3 31 10 38 16 15 18 14 33 -19 l10 -25 -3 28 c-5 30 10 47 23 27 6 -9 11 -7
20 9 9 17 9 26 -1 37 -15 19 -2 18 17 -1 21 -21 34 -19 34 5 0 11 7 23 15 26
8 4 12 10 9 15 -3 5 2 9 10 9 9 0 16 -6 16 -14 0 -8 4 -18 10 -21 5 -3 7 0 4
9 -8 22 6 42 18 25 8 -11 9 -11 5 1 -2 8 -11 15 -20 15 -8 0 -19 4 -23 8 -4 4
12 7 35 7 40 0 43 2 39 24 -3 15 1 27 12 34 19 12 61 5 73 -12 4 -6 5 3 1 19
-4 23 -3 26 5 15 6 -8 11 -10 12 -5 0 6 5 1 10 -10 8 -16 9 -14 5 10 -4 25 -1
31 15 31 10 0 19 -6 19 -14 0 -7 -4 -10 -10 -7 -5 3 -10 2 -10 -3 0 -6 6 -12
14 -15 9 -4 16 4 20 24 3 17 12 29 21 29 9 0 14 -4 10 -9 -3 -5 -1 -12 5 -16
5 -3 10 -11 10 -16 0 -6 -7 -3 -16 6 -19 18 -29 13 -20 -10 3 -9 11 -13 16
-10 6 4 24 -8 40 -25 19 -20 28 -25 23 -14 -6 18 -5 18 18 -1 l24 -20 -19 23
c-11 12 -21 20 -24 17 -6 -5 -31 25 -32 38 0 5 5 5 11 1 6 -3 15 -1 20 7 6 10
11 6 20 -16 10 -24 13 -26 16 -12 3 11 11 16 21 13 9 -3 23 -2 31 3 18 11 43
3 34 -12 -4 -6 -1 -7 6 -3 7 5 10 13 8 20 -3 6 4 12 14 12 10 0 21 -6 23 -13
3 -7 -1 -10 -10 -6 -10 4 -12 0 -8 -11 3 -9 10 -16 15 -16 9 0 11 5 13 33 1
18 24 39 36 32 6 -3 7 1 4 9 -3 9 -1 16 6 16 6 0 8 5 4 12 -5 7 -3 8 5 3 7 -4
11 -17 9 -30 -3 -13 0 -22 8 -22 7 0 10 6 7 14 -7 17 41 35 100 37 42 1 49 -2
53 -21 4 -13 10 -23 14 -23 10 0 1 38 -11 46 -5 3 -9 13 -9 22 0 10 3 13 8 7
11 -16 50 -35 69 -34 11 0 13 3 6 6 -7 2 -13 9 -13 15 0 7 4 7 13 0 10 -9 19
-8 33 3 13 9 25 10 35 4 18 -12 52 -12 44 0 -3 5 -20 13 -38 16 -17 4 -68 19
-112 34 -44 16 -126 41 -182 56 -99 27 -102 29 -105 59 -3 27 -9 33 -68 56
-41 15 -79 39 -100 61 -34 36 -42 38 -394 128 l-358 92 -51 -17 c-41 -14 -73
-16 -166 -11 l-115 6 -25 -29 -26 -30 -290 65 c-159 36 -297 65 -307 65 -11 0
-41 -21 -68 -46z m2190 -464 c0 -5 -4 -10 -10 -10 -5 0 -10 5 -10 10 0 6 5 10
10 10 6 0 10 -4 10 -10z m-370 -90 c0 -5 7 -7 15 -4 8 4 15 1 15 -5 0 -6 -4
-11 -10 -11 -5 0 -7 -7 -4 -15 11 -27 -4 -16 -20 15 -8 17 -10 30 -5 30 5 0 9
-4 9 -10z m80 -20 c0 -5 -4 -10 -10 -10 -5 0 -10 5 -10 10 0 6 5 10 10 10 6 0
10 -4 10 -10z m-280 -19 c0 -6 -4 -13 -10 -16 -5 -3 -10 1 -10 9 0 9 5 16 10
16 6 0 10 -4 10 -9z m250 -1 c0 -5 -2 -10 -4 -10 -3 0 -8 5 -11 10 -3 6 -1 10
4 10 6 0 11 -4 11 -10z m-330 -64 c0 -11 -19 -15 -25 -6 -3 5 1 10 9 10 9 0
16 -2 16 -4z m-445 -76 c-3 -5 -12 -10 -18 -10 -7 0 -6 4 3 10 19 12 23 12 15
0z m325 -28 c0 -15 -2 -15 -10 -2 -13 20 -13 33 0 25 6 -3 10 -14 10 -23z
m-203 -48 c3 -18 2 -18 -5 1 -9 19 -9 19 -20 0 -12 -22 -16 -16 -6 10 8 21 28
14 31 -11z m20 -26 c-3 -7 -5 -2 -5 12 0 14 2 19 5 13 2 -7 2 -19 0 -25z m-23
-14 c9 -24 7 -31 -4 -14 -8 13 -10 12 -10 -2 0 -21 -11 -23 -28 -6 -17 17 -15
31 3 24 8 -3 15 -1 15 4 0 16 17 11 24 -6z m-234 -19 c0 -8 -7 -15 -15 -15
-13 0 -14 3 -3 15 16 18 18 18 18 0z m-673 -77 c-3 -8 -6 -5 -6 6 -1 11 2 17
5 13 3 -3 4 -12 1 -19z m73 -78 c-13 -8 -13 -10 -1 -10 8 0 12 -3 8 -6 -3 -3
-11 -3 -17 1 -8 5 -8 11 1 21 6 8 14 12 18 9 3 -3 -1 -10 -9 -15z m44 -43 c2
-14 8 -32 11 -39 4 -7 -1 -4 -9 6 -9 11 -16 31 -16 45 0 30 7 25 14 -12z m-48
-51 c18 6 18 6 -1 -9 -20 -15 -35 -7 -35 18 0 6 4 4 8 -3 5 -7 16 -10 28 -6z
m38 -2 c3 -8 2 -12 -4 -9 -6 3 -10 10 -10 16 0 14 7 11 14 -7z m-15 -44 c1 10
4 11 13 2 8 -8 8 -15 -2 -27 -14 -17 -7 -113 9 -144 8 -13 11 -11 16 11 6 23
10 26 26 18 14 -8 18 -21 17 -68 -1 -31 3 -66 7 -76 6 -14 5 -17 -4 -11 -10 6
-11 3 -2 -13 6 -11 11 -27 11 -35 0 -13 -6 -14 -39 -8 -2 1 2 8 9 16 9 10 9
15 1 15 -10 0 -15 -14 -12 -34 1 -5 -7 -6 -19 -3 -11 3 -18 1 -14 -4 6 -11 -7
-12 -22 -1 -13 8 -25 64 -13 56 12 -7 11 -1 -3 33 -13 32 -11 55 5 65 8 5 6 8
-4 8 -20 0 -31 23 -22 46 3 9 0 20 -7 24 -12 8 -1 43 13 41 21 -3 27 1 27 18
0 10 -8 22 -17 25 -13 5 -14 9 -5 15 7 4 12 12 11 17 -1 5 -1 16 1 24 1 11 4
9 10 -5 5 -12 9 -15 9 -5z m-46 -36 c-2 -7 0 -15 6 -19 6 -3 11 -11 11 -16 0
-5 -12 1 -26 14 -20 18 -24 30 -19 46 6 21 8 21 20 5 7 -10 11 -24 8 -30z
m842 6 c3 -5 1 -10 -4 -10 -6 0 -11 5 -11 10 0 6 2 10 4 10 3 0 8 -4 11 -10z
m-740 -10 c3 -5 1 -10 -4 -10 -6 0 -11 5 -11 10 0 6 2 10 4 10 3 0 8 -4 11
-10z m690 -20 c3 -5 1 -10 -4 -10 -6 0 -11 5 -11 10 0 6 2 10 4 10 3 0 8 -4
11 -10z m-546 -63 c-1 -17 -2 -18 -6 -4 -2 9 -9 17 -14 17 -6 0 -7 5 -4 10 10
16 25 1 24 -23z m66 -27 c-3 -10 -1 -28 5 -40 6 -11 8 -20 6 -20 -3 0 -12 12
-20 28 -10 20 -11 30 -2 39 16 17 18 16 11 -7z m500 10 c3 -5 -1 -10 -10 -10
-9 0 -13 5 -10 10 3 6 8 10 10 10 2 0 7 -4 10 -10z m-541 -55 c-3 -7 0 -23 6
-35 18 -33 5 -34 -29 -3 -30 27 -31 29 -15 51 12 18 19 20 29 12 8 -6 11 -18
9 -25z m603 0 c0 -8 -4 -12 -9 -9 -5 3 -6 10 -3 15 9 13 12 11 12 -6z m-657
-30 c4 3 14 -10 21 -27 10 -25 10 -33 1 -36 -7 -2 -19 -10 -26 -18 -19 -18
-25 -18 -47 2 -13 12 -16 25 -12 48 9 46 22 59 40 41 8 -9 18 -13 23 -10z
m125 -55 c3 -5 1 -10 -4 -10 -6 0 -11 5 -11 10 0 6 2 10 4 10 3 0 8 -4 11 -10z
m-171 -46 c4 -10 1 -14 -6 -12 -15 5 -23 28 -10 28 5 0 13 -7 16 -16z m96 -8
c0 -2 -7 -7 -16 -10 -8 -3 -12 -2 -9 4 6 10 25 14 25 6z m294 -22 c3 -8 2 -12
-4 -9 -6 3 -10 10 -10 16 0 14 7 11 14 -7z m-148 -27 c1 -11 -4 -16 -17 -14
-22 4 -38 17 -19 17 10 0 10 3 0 15 -11 13 -10 14 10 7 13 -5 24 -16 26 -25z
m-128 -2 c9 -18 7 -21 -11 -22 -12 0 -16 1 -9 4 6 3 12 9 12 14 0 6 -4 7 -10
4 -11 -7 -14 8 -3 18 7 8 7 8 21 -18z m-91 9 c-3 -3 -12 -4 -19 -1 -8 3 -5 6
6 6 11 1 17 -2 13 -5z m407 -9 c-4 -8 -11 -12 -16 -9 -6 4 -5 10 3 15 19 12
19 11 13 -6z m48 -39 c7 4 8 2 4 -4 -8 -13 -36 -5 -36 10 0 5 -4 6 -10 3 -6
-3 -7 1 -4 10 6 14 8 13 21 -5 8 -11 19 -17 25 -14z m313 -36 c3 -6 -1 -7 -9
-4 -18 7 -21 14 -7 14 6 0 13 -4 16 -10z m-370 -56 c9 -20 14 -38 12 -41 -7
-6 -57 72 -57 88 0 19 26 -8 45 -47z m145 -4 c0 -8 5 -22 11 -30 8 -11 9 -7 6
20 -3 19 -3 29 0 22 2 -6 9 -10 13 -7 5 3 12 0 16 -6 5 -8 3 -9 -5 -4 -9 5
-12 -1 -10 -21 5 -66 -2 -67 -31 -4 -16 36 -30 58 -31 50 0 -10 -2 -11 -6 -2
-2 6 -10 9 -15 6 -7 -4 -8 -2 -4 5 4 6 12 9 17 6 5 -4 9 -1 9 6 0 18 29 -23
30 -41z m87 -2 c-3 -8 -6 -5 -6 6 -1 11 2 17 5 13 3 -3 4 -12 1 -19z m-677 -3
c0 -2 -9 -3 -19 -2 -11 0 -18 5 -15 9 4 6 34 0 34 -7z m815 5 c3 -5 1 -10 -4
-10 -6 0 -11 5 -11 10 0 6 2 10 4 10 3 0 8 -4 11 -10z m-67 -35 c-3 -3 -9 2
-12 12 -6 14 -5 15 5 6 7 -7 10 -15 7 -18z m-71 -47 c-3 -8 -6 -5 -6 6 -1 11
2 17 5 13 3 -3 4 -12 1 -19z m103 3 c0 -4 -6 -8 -14 -8 -8 0 -12 6 -9 14 5 13
23 9 23 -6z m-176 -17 c3 -8 10 -12 16 -9 6 3 7 -1 4 -9 -4 -11 0 -16 11 -16
13 0 16 6 12 21 -5 17 -3 19 6 10 9 -9 9 -16 -1 -31 -6 -11 -12 -28 -12 -37
-1 -12 -7 -8 -18 13 -9 18 -23 41 -30 53 -7 11 -9 21 -3 21 5 0 12 -7 15 -16z
m81 -24 c-6 -9 7 -14 27 -11 4 0 4 -7 1 -16 -4 -11 -3 -14 5 -9 8 5 11 -6 10
-38 -2 -28 -6 -41 -11 -33 -5 8 -7 5 -4 -8 2 -11 8 -19 15 -18 6 2 9 -4 6 -12
-4 -8 -8 -15 -10 -15 -9 0 -35 63 -27 69 4 3 9 14 11 25 3 14 -1 17 -12 13
-11 -5 -16 -1 -16 12 0 11 -3 26 -6 35 -3 9 -1 16 6 16 6 0 8 -4 5 -10z m125
-26 c0 -8 -19 -13 -24 -6 -3 5 1 9 9 9 8 0 15 -2 15 -3z m43 -27 c3 -8 -1 -14
-9 -14 -7 0 -15 6 -18 14 -3 7 1 13 8 13 8 0 16 -6 19 -13z m45 -45 c6 -19 7
-30 2 -27 -6 4 -10 13 -10 21 0 8 -3 13 -7 13 -19 -3 -23 2 -11 15 7 8 13 13
14 12 1 0 6 -16 12 -34z m-109 -16 c0 -7 -2 -6 -6 2 -2 6 -9 12 -14 12 -6 0
-6 -8 1 -19 5 -11 6 -22 1 -25 -12 -8 -21 3 -15 19 3 7 -2 15 -10 18 -9 4 -13
13 -10 21 5 13 9 13 30 -1 13 -8 24 -20 23 -27z m101 -41 c0 -5 -10 5 -21 22
-12 18 -26 30 -32 26 -6 -4 -7 -1 -2 7 6 10 14 6 32 -16 12 -16 23 -33 23 -39z
m-91 -7 c4 6 12 4 21 -6 13 -14 12 -15 -3 -9 -10 4 -17 2 -17 -6 0 -8 -4 -6
-10 3 -5 8 -9 20 -9 25 0 6 3 4 6 -4 3 -8 8 -9 12 -3z m-20 -32 c-3 -3 -11 5
-18 17 -13 21 -12 21 5 5 10 -10 16 -20 13 -22z m-59 14 c0 -5 -2 -10 -4 -10
-3 0 -8 5 -11 10 -3 6 -1 10 4 10 6 0 11 -4 11 -10z m36 -27 c-3 -7 -1 -25 4
-39 7 -17 7 -23 0 -19 -6 3 -10 11 -10 17 0 6 -8 20 -17 31 -17 19 -17 20 0
14 20 -7 22 3 5 23 -11 12 -10 12 5 0 10 -7 16 -19 13 -27z m38 -53 l17 -35
-20 25 c-11 14 -21 31 -21 39 0 18 4 14 24 -29z m-488 -1415 c-2 -7 1 -18 7
-25 9 -10 9 -11 0 -6 -6 3 -14 0 -16 -6 -3 -7 -6 4 -6 25 -1 25 3 36 10 32 6
-4 8 -13 5 -20z m2359 -785 c0 -49 12 -46 -195 -60 -85 -6 -181 -14 -212 -17
-32 -3 -58 -2 -58 3 0 5 21 9 48 10 56 1 359 32 385 40 10 3 17 13 15 22 -2
14 8 42 15 42 1 0 2 -18 2 -40z m-226 -111 c-19 -12 -24 -2 -8 17 9 11 14 13
17 4 3 -7 -2 -16 -9 -21z m-174 2 c3 -5 1 -12 -5 -16 -5 -3 -10 1 -10 9 0 18
6 21 15 7z m-477 -238 c-1 -38 -3 -57 -5 -43 -2 14 -9 40 -14 57 -10 32 -6 53
11 53 4 0 8 -30 8 -67z m-721 -17 c-7 -17 -27 -22 -27 -6 0 5 -8 7 -17 4 -17
-5 -17 -5 0 9 9 8 17 20 17 28 0 10 4 9 16 -3 9 -9 14 -24 11 -32z m670 22
c-3 -8 -6 -5 -6 6 -1 11 2 17 5 13 3 -3 4 -12 1 -19z m23 -60 c0 -19 -2 -20
-10 -8 -13 19 -13 30 0 30 6 0 10 -10 10 -22z m-132 -76 c13 -46 18 -81 13
-95 -6 -15 -12 3 -24 70 -25 134 -22 142 11 25z m38 31 c6 -24 8 -25 14 -8 5
13 10 0 19 -43 7 -34 16 -62 20 -62 5 0 11 -17 13 -37 3 -27 0 -42 -11 -51
-14 -10 -13 -11 4 -6 17 6 18 5 7 -7 -11 -12 -16 -10 -31 10 -15 20 -61 185
-61 220 0 22 20 10 26 -16z m119 -55 c9 -40 19 -82 22 -93 3 -16 2 -17 -6 -5
-7 10 -11 11 -11 3 0 -7 -6 -13 -13 -13 -10 0 -14 17 -16 56 -1 31 -4 61 -7
65 -4 8 5 59 11 59 2 0 10 -33 20 -72z m-914 -311 c17 -107 35 -200 39 -207 5
-8 57 -3 191 19 270 44 300 47 294 29 -4 -9 -17 -20 -31 -26 -41 -19 -29 -35
20 -29 48 7 46 9 61 -57 3 -15 9 -26 12 -23 10 11 43 -13 43 -32 0 -28 -19
-38 -90 -45 -36 -4 -121 -18 -190 -31 -195 -38 -350 -60 -350 -50 0 2 -7 38
-15 81 -8 43 -13 79 -12 80 2 2 50 10 107 19 157 25 212 36 206 42 -3 3 -38 0
-78 -6 -40 -7 -92 -14 -115 -14 -24 -1 -43 -6 -43 -11 0 -4 -17 -5 -37 -1 -21
3 -55 6 -75 6 -21 0 -38 0 -38 2 0 1 -16 90 -35 197 -19 107 -35 205 -35 216
0 24 35 39 83 35 22 -2 30 2 34 20 6 22 6 22 14 2 4 -12 22 -109 40 -216z
m1079 193 c0 -5 -7 -10 -16 -10 -12 0 -15 -6 -10 -27 5 -26 5 -26 -6 -6 -6 12
-8 29 -5 37 7 18 37 22 37 6z m-150 -27 c0 -13 -3 -13 -15 -3 -8 7 -15 16 -15
21 0 5 7 6 15 3 8 -4 15 -13 15 -21z m10 -44 c0 -6 -7 -6 -20 1 -11 6 -20 15
-20 21 0 6 7 6 20 -1 11 -6 20 -15 20 -21z m127 -21 c-3 -8 -6 -5 -6 6 -1 11
2 17 5 13 3 -3 4 -12 1 -19z m20 -45 c-3 -10 -5 -2 -5 17 0 19 2 27 5 18 2
-10 2 -26 0 -35z m-231 -170 c5 -28 10 -32 42 -35 31 -3 40 -9 54 -38 l17 -35
-5 70 c-3 41 -1 66 4 60 20 -23 42 -99 42 -148 l0 -53 -45 -12 c-65 -17 -72
-16 -84 21 -12 38 -71 303 -70 314 1 11 37 -105 45 -144z m-199 -5 c-3 -7 -5
-2 -5 12 0 14 2 19 5 13 2 -7 2 -19 0 -25z m56 -5 c-7 -2 -19 -2 -25 0 -7 3
-2 5 12 5 14 0 19 -2 13 -5z m177 -250 c0 -29 -4 -53 -8 -53 -4 0 -8 8 -8 18
0 9 -4 42 -8 72 -7 51 -6 53 8 35 9 -12 15 -41 16 -72z m160 39 c0 -5 -7 -17
-16 -28 -14 -17 -15 -17 -10 -1 3 10 6 23 6 28 0 5 5 9 10 9 6 0 10 -4 10 -8z
m-325 -13 c-22 -4 -49 -8 -60 -8 l-20 0 20 9 c11 5 38 8 60 8 l40 0 -40 -9z
m252 -81 c-3 -7 -5 -2 -5 12 0 14 2 19 5 13 2 -7 2 -19 0 -25z"/>
<path d="M670 6460 c0 -5 5 -10 11 -10 5 0 7 5 4 10 -3 6 -8 10 -11 10 -2 0
-4 -4 -4 -10z"/>
<path d="M1558 2911 c-8 -29 1 -109 13 -117 10 -6 10 66 0 111 -7 30 -7 30
-13 6z"/>
<path d="M2105 2550 c-3 -6 1 -7 9 -4 18 7 21 14 7 14 -6 0 -13 -4 -16 -10z"/>
<path d="M1966 2464 c-4 -9 -4 -19 -1 -22 2 -3 7 3 11 12 4 9 4 19 1 22 -2 3
-7 -3 -11 -12z"/>
<path d="M1910 2430 c-26 -22 -30 -30 -17 -30 18 0 57 34 57 50 0 14 -1 14
-40 -20z"/>
<path d="M2546 2621 c-7 -11 3 -41 14 -41 8 0 20 24 20 41 0 12 -27 12 -34 0z"/>
<path d="M2620 7339 c0 -5 -4 -7 -10 -4 -5 3 -10 1 -10 -4 0 -16 16 -13 30 4
9 10 9 15 1 15 -6 0 -11 -5 -11 -11z"/>
<path d="M2568 7313 c7 -3 16 -2 19 1 4 3 -2 6 -13 5 -11 0 -14 -3 -6 -6z"/>
<path d="M2840 7312 c0 -12 19 -26 26 -19 2 2 -2 10 -11 17 -9 8 -15 8 -15 2z"/>
<path d="M2905 7218 c22 -86 53 -216 120 -503 35 -150 47 -196 51 -192 3 3
-121 554 -171 765 -3 12 -9 22 -14 22 -5 0 2 -42 14 -92z"/>
<path d="M2290 7255 c0 -16 3 -24 8 -19 4 5 11 11 15 15 4 3 1 12 -8 19 -13
11 -15 9 -15 -15z"/>
<path d="M2146 7211 c-4 -5 -2 -12 3 -15 5 -4 12 -2 15 3 4 5 2 12 -3 15 -5 4
-12 2 -15 -3z"/>
<path d="M2185 7198 c4 -13 11 -27 16 -33 5 -5 4 5 -2 23 -12 36 -24 44 -14
10z"/>
<path d="M2300 7209 c0 -5 5 -7 10 -4 6 3 10 8 10 11 0 2 -4 4 -10 4 -5 0 -10
-5 -10 -11z"/>
<path d="M2385 7181 c-3 -5 -2 -12 3 -15 5 -3 9 1 9 9 0 17 -3 19 -12 6z"/>
<path d="M2240 7160 c0 -5 11 -17 24 -25 13 -9 26 -26 30 -38 3 -11 8 -19 11
-15 11 10 -13 55 -39 71 -14 10 -26 13 -26 7z"/>
<path d="M2310 7169 c0 -4 7 -22 15 -40 8 -19 14 -27 14 -19 0 14 -28 72 -29
59z"/>
<path d="M1812 7100 c0 -14 2 -19 5 -12 2 6 2 18 0 25 -3 6 -5 1 -5 -13z"/>
<path d="M1736 7097 c3 -10 9 -15 12 -12 3 3 0 11 -7 18 -10 9 -11 8 -5 -6z"/>
<path d="M2854 7081 c4 -6 2 -11 -3 -11 -6 0 -11 -7 -11 -16 0 -11 -5 -14 -16
-10 -14 5 -15 4 -4 -8 11 -14 17 -41 23 -106 1 -19 -2 -24 -16 -22 -23 4 -20
-24 5 -50 11 -11 15 -24 11 -35 -6 -15 -5 -16 9 -3 10 9 12 17 6 21 -7 5 -7
19 0 45 10 37 10 38 11 9 1 -25 3 -27 12 -13 7 12 6 24 -1 38 -7 13 -7 20 0
20 5 0 10 -4 10 -10 0 -5 7 -10 15 -10 8 0 15 -4 15 -10 0 -5 9 -10 21 -10 19
0 20 4 14 47 -3 26 -12 51 -18 55 -7 4 -13 12 -13 18 -1 5 -2 11 -4 13 -1 1
-3 10 -5 20 -4 24 -5 24 -39 33 -21 5 -27 4 -22 -5z"/>
<path d="M1790 7074 c0 -6 7 -19 16 -30 14 -18 14 -18 3 6 -14 31 -19 36 -19
24z"/>
<path d="M1686 7055 c4 -8 10 -15 15 -15 4 0 6 7 3 15 -4 8 -10 15 -15 15 -4
0 -6 -7 -3 -15z"/>
<path d="M1596 7007 c3 -10 9 -15 12 -12 3 3 0 11 -7 18 -10 9 -11 8 -5 -6z"/>
<path d="M2750 6995 c0 -8 -7 -15 -15 -15 -9 0 -12 -6 -9 -15 4 -8 13 -15 21
-15 9 0 13 -6 9 -15 -3 -8 -1 -15 4 -15 6 0 10 12 10 26 0 14 -4 23 -10 19 -5
-3 -10 -2 -10 4 0 20 17 20 38 0 12 -11 22 -25 22 -32 0 -8 -4 -7 -10 3 -5 8
-12 11 -16 7 -13 -12 10 -27 33 -21 29 8 20 27 -28 58 -30 20 -39 23 -39 11z"/>
<path d="M1468 6924 c2 -13 8 -21 13 -18 14 8 11 31 -4 37 -10 4 -13 -2 -9
-19z"/>
<path d="M1530 6930 c0 -5 5 -10 10 -10 6 0 10 5 10 10 0 6 -4 10 -10 10 -5 0
-10 -4 -10 -10z"/>
<path d="M1890 6931 c0 -6 4 -13 10 -16 6 -3 7 1 4 9 -7 18 -14 21 -14 7z"/>
<path d="M2950 6886 c0 -2 8 -10 18 -17 15 -13 16 -12 3 4 -13 16 -21 21 -21
13z"/>
<path d="M1452 6840 c0 -14 2 -19 5 -12 2 6 2 18 0 25 -3 6 -5 1 -5 -13z"/>
<path d="M1780 6845 c-21 -25 -1 -31 23 -7 17 18 18 22 5 22 -8 0 -21 -7 -28
-15z"/>
<path d="M2931 6834 c0 -11 3 -14 6 -6 3 7 2 16 -1 19 -3 4 -6 -2 -5 -13z"/>
<path d="M1508 6833 c7 -3 16 -2 19 1 4 3 -2 6 -13 5 -11 0 -14 -3 -6 -6z"/>
<path d="M2966 6824 c-9 -24 -7 -27 9 -10 17 17 19 26 6 26 -5 0 -12 -7 -15
-16z"/>
<path d="M1551 6784 c0 -11 3 -14 6 -6 3 7 2 16 -1 19 -3 4 -6 -2 -5 -13z"/>
<path d="M2941 6784 c0 -11 3 -14 6 -6 3 7 2 16 -1 19 -3 4 -6 -2 -5 -13z"/>
<path d="M2861 6774 c0 -11 3 -14 6 -6 3 7 2 16 -1 19 -3 4 -6 -2 -5 -13z"/>
<path d="M1805 6730 c3 -5 8 -10 11 -10 2 0 4 5 4 10 0 6 -5 10 -11 10 -5 0
-7 -4 -4 -10z"/>
<path d="M2950 6680 c0 -6 7 -10 15 -10 8 0 15 2 15 4 0 2 -7 6 -15 10 -8 3
-15 1 -15 -4z"/>
<path d="M1630 6645 c0 -5 5 -17 10 -25 5 -8 10 -10 10 -5 0 6 -5 17 -10 25
-5 8 -10 11 -10 5z"/>
<path d="M1490 6632 c0 -6 9 -12 20 -15 11 -3 20 -3 20 -1 0 2 -9 8 -20 14
-11 6 -20 7 -20 2z"/>
<path d="M1470 6617 c0 -8 7 -17 15 -21 8 -3 15 -2 15 3 0 5 -7 14 -15 21 -12
10 -15 10 -15 -3z"/>
<path d="M1651 6574 c-1 -5 5 -18 12 -28 12 -16 13 -16 13 3 0 11 -3 18 -7 15
-4 -2 -10 2 -12 8 -3 7 -6 8 -6 2z"/>
<path d="M1690 6556 c0 -17 16 -30 23 -19 3 5 -1 14 -9 21 -12 10 -14 10 -14
-2z"/>
<path d="M1810 6520 c0 -5 5 -10 11 -10 5 0 7 5 4 10 -3 6 -8 10 -11 10 -2 0
-4 -4 -4 -10z"/>
<path d="M3081 6484 c0 -11 3 -14 6 -6 3 7 2 16 -1 19 -3 4 -6 -2 -5 -13z"/>
<path d="M2916 6465 c10 -8 23 -15 28 -15 6 0 1 7 -10 15 -10 8 -23 15 -28 15
-6 0 -1 -7 10 -15z"/>
<path d="M3092 6440 c0 -14 2 -19 5 -12 2 6 2 18 0 25 -3 6 -5 1 -5 -13z"/>
<path d="M1746 6434 c-3 -8 -2 -13 3 -9 5 3 11 0 13 -7 3 -9 6 -9 12 0 4 7 2
12 -4 12 -6 0 -8 5 -5 10 3 6 2 10 -3 10 -6 0 -13 -7 -16 -16z"/>
<path d="M3101 6394 c0 -11 3 -14 6 -6 3 7 2 16 -1 19 -3 4 -6 -2 -5 -13z"/>
<path d="M1765 6390 c-3 -5 -1 -10 4 -10 6 0 11 5 11 10 0 6 -2 10 -4 10 -3 0
-8 -4 -11 -10z"/>
<path d="M2715 6370 c-3 -5 -1 -10 4 -10 6 0 11 5 11 10 0 6 -2 10 -4 10 -3 0
-8 -4 -11 -10z"/>
<path d="M1800 6360 c0 -5 5 -10 11 -10 5 0 7 5 4 10 -3 6 -8 10 -11 10 -2 0
-4 -4 -4 -10z"/>
<path d="M3111 6354 c0 -11 3 -14 6 -6 3 7 2 16 -1 19 -3 4 -6 -2 -5 -13z"/>
<path d="M2750 6351 c0 -6 4 -13 10 -16 6 -3 7 1 4 9 -7 18 -14 21 -14 7z"/>
<path d="M2795 6320 c1 -11 5 -23 10 -27 4 -5 5 -3 2 4 -4 6 -2 13 5 15 6 2 8
10 4 16 -11 18 -23 14 -21 -8z"/>
<path d="M3122 6310 c0 -14 2 -19 5 -12 2 6 2 18 0 25 -3 6 -5 1 -5 -13z"/>
<path d="M1110 6296 c0 -19 29 -48 41 -41 15 10 10 28 -6 21 -9 -3 -15 0 -15
9 0 7 -4 17 -10 20 -5 3 -10 -1 -10 -9z"/>
<path d="M1657 6296 c-4 -10 -1 -13 8 -9 8 3 12 9 9 14 -7 12 -11 11 -17 -5z"/>
<path d="M1074 6288 c-4 -6 -3 -8 3 -5 5 3 15 -10 22 -29 7 -18 19 -34 27 -34
8 0 13 -3 10 -8 -2 -4 2 -16 10 -27 12 -16 16 -17 27 -5 9 10 9 12 -1 6 -7 -5
-16 2 -22 18 -5 14 -14 26 -20 26 -6 0 -18 16 -26 35 -16 38 -19 41 -30 23z"/>
<path d="M2970 6285 c0 -8 4 -15 10 -15 5 0 7 7 4 15 -4 8 -8 15 -10 15 -2 0
-4 -7 -4 -15z"/>
<path d="M3132 6265 c0 -21 25 -107 27 -90 0 6 -6 33 -13 60 -8 28 -14 41 -14
30z"/>
<path d="M935 6233 c0 -24 -6 -41 -15 -45 -12 -5 -12 -7 3 -7 9 -1 17 -5 17
-11 0 -5 5 -10 11 -10 7 0 9 13 5 38 -3 23 -2 30 3 18 7 -19 8 -19 13 2 3 12
2 20 -2 19 -5 -1 -15 6 -22 16 -12 15 -13 13 -13 -20z"/>
<path d="M2835 6250 c3 -5 8 -10 11 -10 2 0 4 5 4 10 0 6 -5 10 -11 10 -5 0
-7 -4 -4 -10z"/>
<path d="M915 6240 c-3 -5 -1 -10 4 -10 6 0 11 5 11 10 0 6 -2 10 -4 10 -3 0
-8 -4 -11 -10z"/>
<path d="M2910 6246 c0 -2 8 -10 18 -17 15 -13 16 -12 3 4 -13 16 -21 21 -21
13z"/>
<path d="M2996 6227 c3 -10 9 -15 12 -12 3 3 0 11 -7 18 -10 9 -11 8 -5 -6z"/>
<path d="M1685 6213 c2 -10 4 -22 4 -28 1 -5 5 -4 10 4 10 15 4 41 -9 41 -5 0
-7 -8 -5 -17z"/>
<path d="M2825 6221 c-3 -5 0 -13 6 -17 7 -4 9 -3 5 4 -3 5 0 13 6 15 9 4 10
6 1 6 -6 1 -14 -3 -18 -8z"/>
<path d="M1271 6202 c-8 -14 -6 -19 5 -19 7 0 14 9 14 19 0 10 -2 18 -5 18 -2
0 -9 -8 -14 -18z"/>
<path d="M1067 6203 c-11 -10 -8 -20 6 -26 8 -3 14 3 14 14 2 19 -8 25 -20 12z"/>
<path d="M2860 6198 c15 -19 12 -32 -5 -18 -19 16 -20 3 -1 -15 12 -12 15 -12
20 2 4 9 0 22 -9 30 -8 7 -10 8 -5 1z"/>
<path d="M1299 6163 c-8 -9 -9 -14 -2 -10 6 4 26 -5 44 -20 25 -21 31 -24 26
-10 -4 10 -7 21 -7 23 0 3 -5 2 -11 -1 -6 -4 -13 2 -16 14 -6 25 -16 27 -34 4z"/>
<path d="M1060 6155 c7 -9 15 -13 17 -11 7 7 -7 26 -19 26 -6 0 -6 -6 2 -15z"/>
<path d="M3000 6160 c0 -5 5 -10 11 -10 5 0 7 5 4 10 -3 6 -8 10 -11 10 -2 0
-4 -4 -4 -10z"/>
<path d="M3040 6165 c0 -5 5 -17 10 -25 5 -8 10 -10 10 -5 0 6 -5 17 -10 25
-5 8 -10 11 -10 5z"/>
<path d="M970 6140 c-14 -4 -19 -8 -11 -9 8 -1 20 -9 27 -18 9 -12 13 -14 14
-5 0 7 6 10 13 7 6 -4 4 0 -5 8 -10 8 -15 17 -11 20 7 8 7 8 -27 -3z"/>
<path d="M2950 6145 c1 -12 29 -50 33 -44 2 2 0 15 -4 29 -4 14 -8 18 -8 10
-1 -13 -2 -13 -11 0 -5 8 -10 11 -10 5z"/>
<path d="M3161 6134 c0 -11 3 -14 6 -6 3 7 2 16 -1 19 -3 4 -6 -2 -5 -13z"/>
<path d="M1046 6131 c-5 -8 0 -21 14 -35 21 -20 22 -20 12 -1 -5 11 -11 27
-14 35 -3 11 -6 11 -12 1z"/>
<path d="M1085 6129 c-4 -6 -5 -12 -2 -15 2 -3 7 2 10 11 7 17 1 20 -8 4z"/>
<path d="M1130 6136 c0 -2 7 -7 16 -10 8 -3 12 -2 9 4 -6 10 -25 14 -25 6z"/>
<path d="M1194 6131 c4 -5 1 -12 -4 -14 -6 -3 -5 -4 2 -3 15 3 23 26 8 26 -6
0 -9 -4 -6 -9z"/>
<path d="M2930 6123 c0 -6 8 -17 18 -24 16 -13 16 -13 2 6 -8 11 -16 22 -17
24 -2 2 -3 0 -3 -6z"/>
<path d="M1250 6115 c0 -5 5 -17 10 -25 5 -8 10 -10 10 -5 0 6 -5 17 -10 25
-5 8 -10 11 -10 5z"/>
<path d="M3020 6100 c8 -14 8 -20 0 -20 -6 0 -8 -6 -5 -12 4 -7 -1 -4 -9 6 -9
11 -16 15 -16 9 0 -6 8 -21 18 -33 l18 -22 1 23 c1 13 7 25 13 27 5 2 10 8 10
13 0 6 -4 7 -10 4 -5 -3 -10 1 -10 9 0 9 -5 16 -10 16 -7 0 -7 -6 0 -20z"/>
<path d="M1160 6089 c0 -5 5 -7 10 -4 6 3 10 8 10 11 0 2 -4 4 -10 4 -5 0 -10
-5 -10 -11z"/>
<path d="M1195 6071 c6 -32 14 -40 35 -36 11 2 24 -4 30 -13 5 -9 10 -14 10
-10 0 4 -9 22 -21 40 -12 19 -18 24 -15 12 5 -14 2 -21 -9 -21 -8 0 -16 4 -16
9 -1 4 -2 12 -3 17 0 5 -4 13 -8 17 -4 3 -6 -3 -3 -15z"/>
<path d="M2915 6075 c4 -11 7 -28 7 -37 0 -9 6 -22 14 -29 18 -15 19 -63 2
-54 -7 4 -2 -3 12 -14 15 -12 33 -18 45 -15 11 3 15 2 10 -3 -15 -11 -12 -39
4 -35 7 1 10 -2 6 -8 -5 -8 -11 -8 -21 1 -7 6 -12 15 -9 18 2 4 -3 8 -11 8 -9
0 -13 -6 -9 -14 3 -8 1 -23 -5 -32 -5 -10 -6 -21 -3 -25 4 -3 12 -22 19 -42
10 -28 10 -33 -1 -24 -10 8 -15 8 -21 -1 -4 -8 -3 -9 4 -5 7 4 12 1 12 -8 0
-9 4 -16 9 -16 5 0 8 -11 5 -25 -3 -19 -1 -23 11 -19 11 5 15 0 14 -17 0 -19
-2 -20 -7 -7 -5 13 -11 15 -22 8 -10 -7 -11 -10 -2 -10 6 0 12 -8 12 -17 0 -9
8 -25 18 -36 16 -20 16 -20 -1 -14 -10 4 -23 7 -28 7 -6 0 -8 4 -5 9 3 5 -3
11 -13 14 -15 3 -18 1 -15 -12 3 -9 -1 -5 -9 8 -12 21 -15 22 -18 7 -6 -28
-37 2 -44 43 -10 56 -27 74 -21 21 3 -25 9 -56 12 -69 5 -18 4 -22 -5 -16 -9
5 -12 0 -9 -16 1 -13 8 -24 15 -24 6 0 15 -4 20 -9 5 -5 2 -6 -6 -1 -11 6 -13
3 -9 -12 3 -11 0 -27 -7 -36 -11 -16 -13 -15 -30 3 -10 11 -21 17 -26 15 -4
-3 -10 -1 -14 4 -3 6 -12 8 -20 4 -11 -4 -14 0 -9 13 4 15 4 16 -4 5 -5 -8
-19 -12 -29 -9 -17 5 -20 0 -19 -25 1 -27 26 -54 26 -28 0 6 -4 11 -10 11 -5
0 -7 7 -4 15 10 26 31 17 30 -12 -1 -16 7 -41 18 -57 17 -26 18 -29 3 -23 -11
4 -17 1 -17 -8 0 -11 -6 -12 -32 -3 -18 6 -37 14 -43 18 -5 5 -16 2 -23 -6 -7
-8 -8 -14 -2 -14 5 0 10 -5 10 -11 0 -8 -5 -8 -15 1 -12 10 -13 16 -4 27 9 10
8 18 -6 33 -9 10 -14 23 -11 29 4 5 1 13 -5 17 -6 3 -15 0 -20 -7 -7 -11 -14
-8 -32 13 -18 21 -26 25 -35 16 -15 -15 -15 -28 -1 -28 5 0 7 5 3 11 -4 7 -1
10 7 7 8 -3 13 -11 11 -17 -1 -6 3 -11 10 -11 6 0 3 -6 -8 -14 -13 -10 -23
-11 -31 -4 -9 7 -13 7 -13 -1 0 -7 -4 -10 -9 -7 -5 3 -14 0 -20 -8 -9 -10 -8
-15 4 -20 11 -4 14 -2 10 7 -4 6 3 2 14 -11 18 -21 19 -58 1 -47 -5 3 -11 -1
-13 -7 -5 -11 -11 15 -9 33 1 4 -14 17 -33 30 -32 22 -39 34 -38 66 1 7 -3 11
-7 8 -5 -3 -10 0 -12 7 -2 6 -15 13 -27 15 -20 3 -22 1 -11 -12 7 -8 17 -12
23 -8 6 3 7 1 3 -5 -4 -7 -2 -12 4 -12 6 0 8 -4 5 -10 -3 -5 -2 -10 3 -10 6 0
12 -7 16 -15 3 -9 0 -15 -10 -15 -8 0 -13 4 -10 8 2 4 -5 19 -16 32 -15 19
-18 20 -14 6 5 -16 4 -17 -8 -7 -8 7 -12 20 -9 29 3 10 1 13 -4 7 -13 -16 -31
-15 -29 2 0 9 -5 18 -13 21 -8 3 -11 0 -7 -7 4 -6 3 -11 -3 -11 -5 0 -12 6
-15 13 -4 8 -5 7 -5 -3 2 -28 -1 -38 -14 -52 -11 -11 -8 -16 20 -29 18 -9 33
-13 33 -8 0 4 -9 11 -20 14 -11 3 -20 13 -20 22 0 15 2 15 18 0 11 -11 22 -13
32 -7 17 11 43 -7 33 -24 -4 -6 1 -5 10 3 17 13 22 7 18 -21 0 -3 13 -3 29 2
28 8 40 5 40 -12 0 -5 -6 -6 -12 -3 -7 4 -4 -1 6 -9 11 -9 23 -16 27 -16 4 0
9 -8 12 -19 7 -27 52 -17 55 12 5 48 9 62 18 57 5 -3 8 -8 7 -11 -1 -3 4 -6
12 -6 15 0 16 18 0 29 -5 4 -2 10 8 14 10 4 24 1 30 -5 9 -9 8 -11 -6 -5 -14
5 -16 2 -11 -12 4 -11 12 -25 17 -32 8 -10 7 -16 -4 -23 -9 -6 -18 -4 -25 5
-7 10 -15 12 -25 5 -11 -7 -10 -9 6 -10 11 0 14 -3 7 -6 -7 -2 -17 -14 -23
-25 -8 -16 -8 -19 1 -13 9 5 10 2 6 -12 -4 -13 0 -25 9 -33 13 -11 13 -15 3
-23 -10 -6 -8 -7 4 -3 10 3 20 0 24 -6 4 -7 3 -8 -4 -4 -7 4 -12 2 -12 -4 0
-6 -5 -8 -12 -4 -9 5 -9 2 1 -9 15 -19 26 -23 16 -6 -4 6 0 9 11 7 13 -2 18 3
18 22 0 18 -5 24 -16 22 -9 -1 -19 2 -23 8 -4 7 4 9 24 5 23 -4 35 0 48 15 17
20 17 20 40 -2 13 -12 23 -17 23 -12 0 5 5 2 11 -6 8 -12 9 -11 7 5 -2 12 -11
19 -21 19 -9 -1 -15 2 -12 6 3 4 -3 10 -13 13 -9 2 -26 8 -37 12 -16 5 -17 5
-5 -4 11 -8 12 -11 2 -11 -7 0 -10 -5 -6 -12 4 -7 3 -8 -5 -4 -6 4 -18 3 -26
-4 -9 -7 -15 -8 -20 0 -3 5 -1 10 6 10 7 0 9 3 5 7 -4 5 -14 -1 -22 -11 -8
-11 -14 -15 -14 -8 0 6 10 18 22 26 12 9 17 16 10 16 -6 0 -12 4 -12 9 0 10
19 9 38 -2 7 -5 12 -3 12 3 0 8 6 7 21 -1 13 -7 19 -7 15 -1 -7 12 32 10 51
-1 6 -4 14 -3 18 3 11 18 28 11 22 -10 -3 -10 1 -24 9 -31 17 -14 19 -33 2
-23 -7 4 -9 3 -5 -1 10 -11 37 -15 37 -6 0 4 -9 17 -20 29 -12 12 -15 22 -9
22 6 0 17 -8 24 -17 11 -15 12 -14 10 11 -2 15 1 26 7 24 5 -2 8 -7 6 -10 -2
-4 6 -14 17 -23 14 -12 15 -15 4 -12 -9 3 -16 -1 -16 -9 0 -7 4 -11 9 -8 4 3
5 -1 2 -9 -3 -8 3 -18 13 -22 28 -12 44 -14 38 -5 -10 16 20 17 40 1 14 -11
12 -7 -4 12 -23 25 -23 27 -5 27 11 0 25 -5 31 -11 8 -8 13 -8 18 0 3 6 2 10
-3 9 -14 -4 -16 16 -3 20 6 2 18 -11 26 -30 12 -28 20 -31 16 -5 -2 14 12 7
35 -18 14 -15 21 -32 18 -43 -5 -14 -4 -14 4 -2 6 8 8 18 5 24 -3 5 -1 6 5 2
6 -3 13 -2 17 4 3 5 -2 10 -13 10 -10 0 -25 11 -32 25 -7 13 -17 22 -21 19
-12 -7 -49 14 -49 28 0 6 3 8 7 5 3 -4 12 -2 19 4 10 9 15 7 20 -4 3 -9 14
-14 26 -12 16 3 18 2 8 -10 -9 -11 -9 -18 4 -30 12 -12 16 -13 16 -3 0 10 3 9
10 -2 9 -14 14 -7 11 13 -1 5 3 6 9 2 6 -3 7 -12 3 -18 -12 -20 -12 -36 2 -47
10 -8 13 -5 14 12 2 48 6 68 13 68 5 0 6 -25 3 -55 -3 -36 -1 -55 6 -55 6 0 8
9 4 21 -5 16 -4 19 6 14 9 -6 11 -3 5 10 -5 15 -4 16 9 5 9 -7 12 -16 7 -19
-5 -3 -15 -21 -23 -38 -15 -35 -23 -40 -35 -21 -4 7 -3 8 4 4 7 -4 12 -2 12 3
0 6 -4 11 -8 11 -5 0 -15 11 -22 25 -7 13 -18 22 -23 18 -6 -4 -4 -10 4 -17 8
-6 20 -30 27 -53 7 -23 17 -45 24 -49 7 -5 8 -2 1 11 -8 14 -5 24 16 44 15 15
31 35 35 46 7 19 8 19 18 2 5 -10 7 -25 4 -33 -3 -8 1 -14 8 -14 8 0 17 -6 20
-12 3 -7 3 -2 1 12 -6 31 17 63 39 54 9 -3 13 -10 10 -15 -3 -5 -9 -7 -14 -4
-4 3 -10 -1 -13 -8 -4 -10 2 -13 19 -9 15 3 26 13 30 29 5 19 9 22 15 11 6 -8
7 5 3 32 -4 25 -11 46 -16 48 -4 2 -5 15 -2 28 5 18 2 24 -11 24 -10 0 -14 -5
-9 -12 4 -7 3 -10 -1 -5 -5 4 -10 17 -12 29 -2 12 -7 26 -12 32 -12 16 -21 57
-10 50 12 -7 12 -1 -7 62 -8 30 -19 52 -24 49 -4 -3 -14 3 -21 13 -13 15 -12
16 3 4 14 -11 17 -10 23 7 3 12 3 25 0 31 -3 5 0 10 7 10 8 0 6 5 -5 11 -14 8
-16 14 -7 24 9 11 8 33 -4 90 -9 42 -19 82 -23 88 -4 7 -9 19 -10 27 -1 8 -9
35 -17 60 -11 32 -14 36 -10 13 5 -27 2 -33 -13 -33 -15 0 -15 -2 -3 -10 17
-10 14 -15 -19 -25 -18 -5 -22 -4 -16 5 5 9 4 11 -3 6 -8 -4 -16 3 -22 19 -11
29 -3 56 10 35 4 -7 10 -8 13 -4 3 5 -1 14 -8 21 -10 9 -16 5 -29 -20 -13 -28
-14 -33 -1 -43 8 -6 12 -14 8 -18 -8 -8 -63 50 -63 67 -1 7 -12 26 -26 42 -17
20 -22 24 -17 10 6 -18 5 -19 -12 -5 -10 8 -27 29 -38 45 -10 17 -16 21 -12
10z m45 -60 c19 -23 8 -25 -14 -4 -11 11 -15 19 -9 19 6 0 16 -7 23 -15z m50
-49 c0 -6 -7 -1 -15 10 -8 10 -15 23 -15 28 0 6 7 1 15 -10 8 -10 15 -23 15
-28z m-25 -6 c-3 -5 -12 -10 -18 -10 -7 0 -6 4 3 10 19 12 23 12 15 0z m128
-80 c9 -10 9 -11 -1 -6 -9 6 -11 1 -8 -19 5 -27 5 -27 -15 -9 -12 10 -25 26
-30 36 -7 14 -5 16 16 14 14 -2 31 -9 38 -16z m35 -25 c-3 -3 -9 2 -12 12 -6
14 -5 15 5 6 7 -7 10 -15 7 -18z m-157 -13 c-6 -2 -8 -9 -4 -15 4 -7 0 -7 -9
1 -9 8 -14 20 -11 28 4 12 8 12 20 2 10 -8 11 -14 4 -16z m34 8 c-4 -6 -1 -17
5 -25 7 -9 8 -15 2 -15 -12 0 -24 29 -16 41 3 5 7 9 10 9 3 0 2 -5 -1 -10z
m205 -130 c0 -5 -7 -7 -15 -4 -8 4 -15 8 -15 10 0 2 7 4 15 4 8 0 15 -4 15
-10z m-140 -25 c14 -19 14 -19 -2 -6 -10 7 -18 18 -18 24 0 6 1 8 3 6 1 -2 9
-13 17 -24z m35 7 c-3 -3 -11 0 -18 7 -9 10 -8 11 6 5 10 -3 15 -9 12 -12z
m-199 -180 c-2 -2 -10 13 -17 32 -7 20 -19 36 -26 36 -11 0 -11 3 -1 14 11 11
16 6 30 -32 10 -25 16 -48 14 -50z m51 56 c-3 -8 -6 -5 -6 6 -1 11 2 17 5 13
3 -3 4 -12 1 -19z m-14 -22 c-7 -27 -11 -29 -21 -9 -10 18 -9 21 6 19 9 -2 16
-6 15 -10z m-636 -58 c-6 -4 -17 -2 -24 4 -22 18 -15 27 11 15 16 -8 20 -14
13 -19z m451 7 c-3 -3 -9 2 -12 12 -6 14 -5 15 5 6 7 -7 10 -15 7 -18z m50 0
c-3 -3 -9 2 -12 12 -6 14 -5 15 5 6 7 -7 10 -15 7 -18z m74 3 c-7 -7 -12 -8
-12 -2 0 14 12 26 19 19 2 -3 -1 -11 -7 -17z m-25 -34 c1 -31 22 -47 40 -32
10 8 12 7 7 -6 -7 -17 11 -23 21 -6 3 6 12 10 18 10 7 0 -1 -8 -16 -18 -18
-11 -26 -23 -23 -34 2 -10 0 -18 -5 -18 -5 0 -9 5 -9 10 0 6 -5 9 -12 8 -6 -2
-13 6 -15 17 -3 16 -2 17 6 5 8 -12 13 -12 23 -2 8 8 9 12 1 12 -13 0 -64 44
-60 51 1 2 -4 -2 -10 -10 -20 -23 -16 -44 7 -38 11 3 18 1 15 -4 -7 -10 25
-62 33 -54 3 2 11 0 19 -6 10 -9 13 -8 13 1 0 7 7 10 14 7 10 -4 13 -1 9 8 -3
8 -10 12 -17 8 -7 -3 -6 -1 1 7 7 8 20 15 29 16 12 2 13 -1 6 -8 -6 -6 -8 -17
-5 -24 3 -9 -8 -19 -31 -29 -20 -9 -34 -19 -31 -24 2 -5 -2 -12 -10 -15 -8 -3
-18 -7 -22 -8 -11 -5 -13 41 -1 48 7 4 8 3 4 -4 -4 -7 -4 -17 0 -23 4 -8 9 -7
15 2 9 15 -9 42 -22 33 -5 -3 -12 3 -16 13 -4 10 -14 23 -23 30 -30 22 -12 79
30 96 8 3 15 6 15 6 0 1 1 -11 2 -25z m253 16 c0 -5 -2 -10 -4 -10 -3 0 -8 5
-11 10 -3 6 -1 10 4 10 6 0 11 -4 11 -10z m-324 -12 c5 -7 3 -8 -6 -3 -10 6
-12 4 -6 -11 5 -14 4 -16 -5 -7 -6 6 -8 16 -5 22 9 14 13 14 22 -1z m-161 -37
c-9 -16 -25 -3 -18 15 4 10 9 12 15 6 6 -6 7 -15 3 -21z m506 2 c-12 -20 -14
-14 -5 12 4 9 9 14 11 11 3 -2 0 -13 -6 -23z m66 11 c-3 -4 1 -21 9 -38 l15
-31 -19 22 c-11 12 -23 19 -27 15 -4 -4 -2 3 4 16 6 12 15 22 18 22 3 0 4 -3
0 -6z m-205 -11 c-6 -2 -10 -8 -8 -12 3 -4 1 -13 -3 -20 -6 -9 -8 -4 -8 13 0
18 5 26 16 25 10 0 12 -2 3 -6z m-205 -38 c-1 -40 -1 -40 -21 -19 -20 20 -20
34 -1 34 8 0 15 5 15 10 0 6 2 10 4 10 2 0 3 -16 3 -35z m243 21 c0 -8 -7 -16
-15 -20 -9 -3 -15 0 -15 10 0 8 5 12 10 9 6 -3 10 -1 10 4 0 6 2 11 5 11 3 0
5 -6 5 -14z m56 5 c-4 -5 0 -12 6 -14 8 -3 6 -6 -4 -6 -18 -1 -24 10 -11 22 9
10 15 8 9 -2z m-406 -11 c8 -5 12 -11 9 -14 -3 -3 -14 1 -25 9 -21 16 -8 20
16 5z m50 -14 c0 -11 -19 -15 -25 -6 -3 5 1 10 9 10 9 0 16 -2 16 -4z m307
-21 c0 -8 -4 -12 -9 -9 -4 3 -8 9 -8 15 0 5 4 9 8 9 5 0 9 -7 9 -15z m51 -20
c-3 -3 -9 2 -12 12 -6 14 -5 15 5 6 7 -7 10 -15 7 -18z m106 -94 c-6 -6 -24
19 -24 34 1 6 7 1 15 -9 8 -11 12 -22 9 -25z m26 -21 c0 -5 -4 -10 -10 -10 -5
0 -10 5 -10 10 0 6 5 10 10 10 6 0 10 -4 10 -10z"/>
<path d="M3084 5879 c-3 -6 -2 -15 3 -20 5 -5 9 -1 9 11 0 23 -2 24 -12 9z"/>
<path d="M760 6070 c0 -5 5 -10 10 -10 6 0 10 5 10 10 0 6 -4 10 -10 10 -5 0
-10 -4 -10 -10z"/>
<path d="M2950 6070 c0 -6 4 -9 9 -6 5 4 12 1 14 -4 3 -6 4 -5 3 2 -3 15 -26
23 -26 8z"/>
<path d="M1068 6045 c-3 -13 -2 -22 2 -20 11 7 20 45 10 45 -4 0 -10 -11 -12
-25z"/>
<path d="M1157 6049 c3 -11 8 -17 11 -14 3 2 11 0 19 -7 10 -8 12 -8 8 3 -3 8
-14 20 -24 26 -16 10 -18 9 -14 -8z"/>
<path d="M3065 6043 c18 -38 21 -40 21 -13 0 10 -2 17 -5 15 -2 -3 -10 3 -18
13 -10 12 -9 8 2 -15z"/>
<path d="M3181 6044 c0 -11 3 -14 6 -6 3 7 2 16 -1 19 -3 4 -6 -2 -5 -13z"/>
<path d="M1090 6046 c0 -2 8 -10 18 -17 15 -13 16 -12 3 4 -13 16 -21 21 -21
13z"/>
<path d="M3015 6010 c10 -11 20 -20 23 -20 3 0 -3 9 -13 20 -10 11 -20 20 -23
20 -3 0 3 -9 13 -20z"/>
<path d="M3192 6000 c0 -14 2 -19 5 -12 2 6 2 18 0 25 -3 6 -5 1 -5 -13z"/>
<path d="M1221 5973 c16 -26 42 -32 32 -8 -3 9 -8 13 -11 11 -3 -3 -12 0 -20
7 -13 11 -14 9 -1 -10z"/>
<path d="M1287 5973 c5 -12 3 -14 -8 -8 -8 5 -11 4 -6 0 4 -5 14 -10 22 -11
12 -2 12 2 5 17 -13 23 -22 25 -13 2z"/>
<path d="M3040 5980 c-11 -7 -12 -12 -4 -20 8 -8 13 -6 17 9 3 12 4 21 4 21
-1 0 -9 -5 -17 -10z"/>
<path d="M3140 5978 c0 -9 5 -20 10 -23 13 -8 13 5 0 25 -8 13 -10 13 -10 -2z"/>
<path d="M1190 5973 c0 -5 3 -13 8 -17 4 -4 7 -11 7 -14 2 -22 18 -51 25 -47
5 3 17 -8 26 -25 10 -16 22 -30 27 -30 4 0 -3 15 -17 33 -14 19 -23 37 -19 41
4 4 -1 4 -12 0 -14 -6 -17 -4 -13 7 3 8 -3 25 -13 38 -11 13 -19 19 -19 14z"/>
<path d="M1100 5956 c0 -2 8 -10 18 -17 15 -13 16 -12 3 4 -13 16 -21 21 -21
13z"/>
<path d="M1780 5946 c0 -2 7 -7 16 -10 8 -3 12 -2 9 4 -6 10 -25 14 -25 6z"/>
<path d="M1379 5936 c-2 -8 -6 -25 -9 -33 -7 -25 5 -81 23 -103 11 -14 17 -17
14 -8 -3 10 0 19 10 22 19 8 45 -12 36 -27 -4 -6 -1 -7 6 -2 9 5 7 13 -8 29
-23 24 -28 42 -9 30 7 -4 8 -3 4 4 -10 16 -38 2 -32 -15 3 -8 1 -11 -4 -8 -6
3 -10 0 -10 -7 0 -8 -5 -5 -11 6 -9 14 -7 22 6 35 12 10 15 11 10 2 -6 -10 -4
-12 4 -6 9 5 10 10 2 18 -6 6 -11 18 -11 26 0 11 4 10 16 -5 15 -19 15 -18 5
2 -11 22 -40 50 -42 40z m16 -41 c1 -27 -10 -33 -18 -10 -4 8 -2 17 4 20 5 4
6 12 3 18 -4 7 -3 9 1 4 5 -4 9 -18 10 -32z"/>
<path d="M3211 5914 c0 -11 3 -14 6 -6 3 7 2 16 -1 19 -3 4 -6 -2 -5 -13z"/>
<path d="M1777 5899 c4 -15 3 -20 -5 -15 -8 5 -12 0 -12 -13 0 -24 4 -25 31
-11 11 6 19 7 18 3 -4 -25 3 -42 21 -48 11 -4 18 -10 16 -14 -3 -4 1 -8 8 -8
8 0 12 6 9 14 -3 7 -9 13 -13 13 -4 0 -13 20 -20 45 -7 25 -16 45 -20 45 -5 0
-15 3 -23 6 -12 4 -14 0 -10 -17z"/>
<path d="M1190 5898 c0 -8 10 -23 22 -34 l21 -19 -18 30 c-26 41 -25 40 -25
23z"/>
<path d="M1165 5850 c3 -5 11 -10 16 -10 6 0 7 5 4 10 -3 6 -11 10 -16 10 -6
0 -7 -4 -4 -10z"/>
<path d="M1660 5851 c0 -6 4 -13 10 -16 6 -3 7 1 4 9 -7 18 -14 21 -14 7z"/>
<path d="M1315 5832 c6 -22 5 -23 -17 -12 -19 9 -18 7 5 -11 20 -15 26 -27 22
-43 -2 -11 -2 -15 1 -8 3 6 9 10 13 8 4 -3 7 4 7 14 0 10 -4 17 -7 14 -4 -2
-10 0 -14 6 -3 6 4 10 17 11 15 0 18 3 8 6 -8 3 -21 13 -29 22 -12 14 -12 13
-6 -7z"/>
<path d="M1053 5833 c-7 -2 -13 -10 -13 -15 0 -6 3 -8 7 -5 3 4 12 2 19 -4 9
-8 11 -5 7 10 -3 12 -6 21 -7 20 0 0 -7 -3 -13 -6z"/>
<path d="M1261 5820 c14 -31 19 -36 19 -24 0 6 -7 19 -16 30 -14 18 -14 18 -3
-6z"/>
<path d="M1777 5822 c2 -10 13 -23 23 -29 17 -11 17 -10 3 18 -16 32 -34 40
-26 11z"/>
<path d="M1460 5826 c0 -2 8 -10 18 -17 15 -13 16 -12 3 4 -13 16 -21 21 -21
13z"/>
<path d="M1126 5807 c3 -10 9 -15 12 -12 3 3 0 11 -7 18 -10 9 -11 8 -5 -6z"/>
<path d="M1150 5813 c0 -5 10 -18 23 -29 l22 -19 -20 25 c-11 14 -21 27 -22
29 -2 2 -3 0 -3 -6z"/>
<path d="M1750 5811 c0 -5 5 -13 10 -16 6 -3 10 -2 10 4 0 5 -4 13 -10 16 -5
3 -10 2 -10 -4z"/>
<path d="M3241 5794 c0 -11 3 -14 6 -6 3 7 2 16 -1 19 -3 4 -6 -2 -5 -13z"/>
<path d="M1020 5781 c0 -6 4 -13 10 -16 6 -3 7 1 4 9 -7 18 -14 21 -14 7z"/>
<path d="M1040 5786 c0 -2 8 -10 18 -17 15 -13 16 -12 3 4 -13 16 -21 21 -21
13z"/>
<path d="M1380 5778 c0 -10 -5 -18 -11 -18 -5 0 -7 -5 -4 -10 4 -6 8 -36 11
-67 2 -31 9 -62 15 -67 11 -12 7 83 -5 102 -4 7 -5 12 -2 12 8 0 36 -57 30
-62 -3 -3 2 -8 11 -11 19 -8 19 -3 0 33 -9 17 -11 30 -5 30 5 0 10 -5 10 -11
0 -7 8 -17 17 -24 13 -10 15 -16 6 -27 -9 -11 -9 -23 1 -51 7 -20 16 -34 20
-30 4 5 4 -5 0 -21 -6 -23 -4 -27 7 -20 34 20 36 28 12 50 -21 19 -23 26 -13
44 9 17 9 25 -3 38 -8 9 -13 22 -11 27 2 6 -16 19 -41 30 -44 20 -54 30 -35
37 6 2 6 8 0 18 -8 13 -10 12 -10 -2z m100 -128 c0 -5 -4 -10 -10 -10 -5 0
-10 5 -10 10 0 6 5 10 10 10 6 0 10 -4 10 -10z"/>
<path d="M1877 5776 c-4 -10 -1 -13 9 -9 15 6 19 23 5 23 -5 0 -11 -7 -14 -14z"/>
<path d="M1547 5750 c3 -10 11 -24 19 -31 10 -8 10 -3 -2 20 -18 35 -24 40
-17 11z"/>
<path d="M1415 5750 c3 -5 8 -10 11 -10 2 0 4 5 4 10 0 6 -5 10 -11 10 -5 0
-7 -4 -4 -10z"/>
<path d="M1950 5751 c0 -5 -9 -7 -20 -4 -12 3 -20 0 -20 -7 0 -9 -4 -9 -17 1
-16 13 -17 12 -4 -3 10 -14 17 -15 33 -7 11 6 18 7 15 2 -3 -5 4 -9 16 -10 12
0 17 1 10 4 -7 2 -9 11 -6 19 3 8 2 14 -1 14 -3 0 -6 -4 -6 -9z"/>
<path d="M1073 5733 c2 -12 6 -26 10 -29 11 -11 8 19 -3 36 -8 12 -9 10 -7 -7z"/>
<path d="M1494 5724 c1 -8 6 -17 11 -21 4 -4 5 -3 2 3 -9 15 17 25 32 13 8 -6
8 -5 1 3 -13 16 -48 17 -46 2z"/>
<path d="M2050 5721 c0 -5 7 -11 14 -14 10 -4 13 -1 9 9 -6 15 -23 19 -23 5z"/>
<path d="M2100 5721 c0 -5 5 -13 10 -16 6 -3 10 -2 10 4 0 5 -4 13 -10 16 -5
3 -10 2 -10 -4z"/>
<path d="M2217 5723 c-4 -6 2 -21 13 -33 23 -26 26 -17 6 19 -7 13 -16 19 -19
14z"/>
<path d="M2293 5719 c1 -6 -4 -14 -10 -16 -7 -3 -13 0 -13 7 0 6 -4 8 -10 5
-14 -9 11 -45 32 -45 10 0 22 -9 28 -21 18 -33 22 -16 6 29 -8 22 -12 43 -9
46 4 3 -1 6 -10 6 -9 0 -16 -5 -14 -11z"/>
<path d="M2960 5720 c0 -5 5 -10 11 -10 5 0 7 5 4 10 -3 6 -8 10 -11 10 -2 0
-4 -4 -4 -10z"/>
<path d="M1882 5693 c2 -40 8 -47 22 -27 12 16 14 15 29 -7 10 -13 17 -29 17
-36 0 -7 5 -13 10 -13 14 0 12 27 -2 33 -7 3 -2 4 12 3 14 -1 35 -8 47 -14 16
-9 24 -9 29 0 4 6 3 8 -3 5 -6 -4 -21 3 -34 14 -14 12 -33 19 -46 16 -12 -2
-24 1 -27 8 -5 13 31 14 52 2 17 -11 15 1 -3 19 -18 19 -65 24 -84 10 -11 -8
-13 -8 -7 2 4 6 2 12 -3 12 -6 0 -10 -12 -9 -27z"/>
<path d="M3261 5704 c0 -11 3 -14 6 -6 3 7 2 16 -1 19 -3 4 -6 -2 -5 -13z"/>
<path d="M2033 5685 c0 -7 6 -11 14 -8 7 3 13 6 13 8 0 2 -6 5 -13 8 -8 3 -14
-1 -14 -8z"/>
<path d="M2387 5683 c6 -16 5 -17 -12 -3 -10 8 -16 10 -12 4 3 -6 9 -26 12
-45 3 -19 8 -42 11 -51 8 -28 -5 -21 -16 7 -10 26 -30 34 -30 13 0 -18 50 -64
50 -47 1 10 5 9 14 -4 11 -14 19 -15 39 -8 14 5 28 7 31 4 3 -4 6 -1 6 5 0 6
-4 13 -9 16 -11 7 -9 32 4 43 4 4 5 2 0 -6 -5 -9 -4 -12 3 -7 8 4 8 15 2 31
-6 16 -6 25 0 25 6 0 10 -4 10 -10 0 -5 6 -10 13 -10 13 1 -42 50 -56 50 -4 0
-3 -9 3 -19 13 -25 13 -34 0 -26 -9 5 -6 -36 6 -73 2 -7 -1 -10 -6 -7 -6 3
-10 13 -10 22 0 8 -6 29 -14 46 -8 18 -16 40 -20 50 -3 9 -10 17 -15 17 -6 0
-7 -8 -4 -17z m23 -42 c0 -4 -6 -8 -14 -8 -8 0 -12 6 -9 14 5 13 23 9 23 -6z
m20 -62 c0 -17 -4 -28 -10 -24 -5 3 -6 13 -3 22 4 10 2 14 -4 10 -6 -4 -13 0
-16 8 -4 10 -1 12 10 8 12 -5 14 -3 8 7 -5 9 -4 11 3 6 7 -4 12 -21 12 -37z"/>
<path d="M1221 5668 c5 -10 11 -18 12 -18 2 0 3 8 3 18 0 10 -6 19 -13 19 -8
0 -9 -6 -2 -19z"/>
<path d="M2080 5681 c0 -5 7 -12 16 -15 14 -5 15 -4 4 9 -14 17 -20 19 -20 6z"/>
<path d="M1644 5665 c8 -8 17 -15 20 -15 3 0 3 7 0 15 -4 8 -13 15 -21 15 -12
0 -12 -2 1 -15z"/>
<path d="M2516 5671 c-4 -6 -2 -20 5 -32 10 -19 9 -21 -5 -16 -10 4 -15 3 -11
-3 12 -19 35 -10 35 13 0 29 -15 53 -24 38z"/>
<path d="M3277 5640 c9 -76 134 -602 141 -595 3 3 -103 471 -134 590 l-13 50
6 -45z"/>
<path d="M1534 5662 c-6 -4 -14 -17 -18 -29 -5 -15 -13 -20 -24 -17 -9 3 -4
-6 13 -20 28 -24 51 -28 27 -4 -20 20 -14 36 13 30 26 -4 34 11 13 24 -7 5 -8
3 -3 -6 6 -9 4 -11 -4 -6 -7 5 -10 14 -7 22 6 16 5 16 -10 6z"/>
<path d="M1856 5655 c4 -8 8 -15 10 -15 2 0 4 7 4 15 0 8 -4 15 -10 15 -5 0
-7 -7 -4 -15z"/>
<path d="M2150 5661 c0 -10 19 -25 25 -20 1 2 -3 10 -11 17 -8 7 -14 8 -14 3z"/>
<path d="M2655 5660 c-3 -5 -1 -10 4 -10 6 0 11 5 11 10 0 6 -2 10 -4 10 -3 0
-8 -4 -11 -10z"/>
<path d="M2087 5650 c7 -8 23 -15 35 -17 12 -2 19 -1 16 3 -3 3 -12 6 -20 8
-7 1 -20 5 -28 10 -12 7 -13 6 -3 -4z"/>
<path d="M2245 5650 c-3 -6 1 -7 9 -4 18 7 21 14 7 14 -6 0 -13 -4 -16 -10z"/>
<path d="M1421 5620 c15 -45 24 -54 15 -15 -4 17 -12 34 -17 40 -5 5 -4 -6 2
-25z"/>
<path d="M1024 5620 c0 -10 2 -17 5 -15 2 3 11 -1 19 -8 11 -9 11 -4 -2 16
-22 32 -22 32 -22 7z"/>
<path d="M1876 5623 c-6 -14 -5 -15 5 -6 7 7 10 15 7 18 -3 3 -9 -2 -12 -12z"/>
<path d="M2295 5629 c-6 -8 -4 -10 5 -4 10 6 12 4 6 -11 -6 -15 -5 -17 5 -6 9
9 10 15 2 23 -8 8 -13 7 -18 -2z"/>
<path d="M2585 5630 c-4 -6 -11 -8 -16 -5 -5 4 -9 2 -9 -4 0 -5 4 -12 9 -15 4
-3 6 -18 4 -33 -3 -16 -1 -23 4 -17 17 23 83 -2 67 -27 -4 -7 38 -21 44 -14 8
8 -20 35 -29 29 -5 -3 -9 -2 -10 3 -2 23 -8 43 -18 60 -9 15 -10 13 -5 -12 6
-29 6 -29 -9 -10 -9 11 -17 15 -17 8 0 -7 -4 -13 -9 -13 -14 0 -7 34 8 41 10
4 11 8 4 12 -7 4 -14 3 -18 -3z"/>
<path d="M1360 5614 c0 -4 8 -13 18 -20 15 -13 14 -14 -13 -9 -33 5 -64 -8
-46 -19 6 -4 11 -2 11 5 0 6 15 0 34 -14 45 -35 58 -36 62 -9 3 15 0 21 -7 17
-6 -4 -13 2 -15 12 -5 18 -44 51 -44 37z m40 -60 c0 -2 -9 0 -20 6 -11 6 -20
13 -20 16 0 2 9 0 20 -6 11 -6 20 -13 20 -16z"/>
<path d="M2650 5606 c0 -9 5 -16 10 -16 6 0 10 4 10 9 0 6 -4 13 -10 16 -5 3
-10 -1 -10 -9z"/>
<path d="M1546 5591 c3 -9 7 -21 7 -28 0 -7 4 -10 9 -7 4 3 6 -1 3 -8 -3 -7 5
-19 17 -27 18 -10 20 -10 11 0 -7 7 -13 21 -13 31 0 10 -5 18 -12 18 -7 0 -5
7 5 18 15 17 15 18 -9 18 -18 0 -23 -4 -18 -15z"/>
<path d="M2823 5590 c20 -28 22 -44 5 -34 -7 4 -8 3 -4 -5 4 -6 12 -9 17 -6 5
4 9 1 9 -4 0 -6 5 -11 10 -11 14 0 -13 52 -36 71 -17 13 -17 13 -1 -11z"/>
<path d="M2320 5594 c0 -6 3 -14 8 -18 4 -4 7 -12 7 -17 0 -5 3 -9 8 -9 10 0
7 12 -9 35 -8 11 -14 15 -14 9z"/>
<path d="M2489 5598 c-6 -16 -4 -76 2 -72 4 2 11 -5 14 -17 4 -11 9 -18 12
-15 4 3 12 1 20 -5 7 -6 13 -7 13 -3 0 5 -9 15 -20 22 -14 8 -20 23 -20 46 0
19 -4 38 -10 41 -5 3 -10 5 -11 3z"/>
<path d="M2524 5571 c0 -26 2 -28 18 -20 22 12 20 42 -3 47 -11 2 -15 -5 -15
-27z"/>
<path d="M1903 5576 c1 -11 9 -21 17 -23 10 -3 11 -2 4 4 -6 4 -14 15 -17 23
-5 11 -6 9 -4 -4z"/>
<path d="M1055 5570 c3 -5 10 -10 16 -10 5 0 9 5 9 10 0 6 -7 10 -16 10 -8 0
-12 -4 -9 -10z"/>
<path d="M2676 5565 c4 -8 8 -15 10 -15 2 0 4 7 4 15 0 8 -4 15 -10 15 -5 0
-7 -7 -4 -15z"/>
<path d="M2780 5576 c0 -2 7 -9 15 -16 13 -11 14 -10 9 4 -5 14 -24 23 -24 12z"/>
<path d="M1440 5539 c-6 -11 -9 -28 -7 -37 4 -16 5 -16 6 1 0 9 5 17 9 17 4 0
8 9 8 20 0 25 -3 25 -16 -1z"/>
<path d="M1535 5520 c-3 -11 -11 -20 -16 -20 -5 0 -9 -7 -9 -15 0 -36 36 -5
38 33 1 27 -5 28 -13 2z"/>
<path d="M2463 5512 c4 -19 3 -21 -9 -11 -11 9 -14 8 -14 -5 0 -12 8 -16 30
-14 36 3 37 9 8 34 -21 19 -21 19 -15 -4z"/>
<path d="M1390 5510 c0 -5 5 -10 11 -10 5 0 7 5 4 10 -3 6 -8 10 -11 10 -2 0
-4 -4 -4 -10z"/>
<path d="M1570 5506 c0 -3 9 -10 20 -16 11 -6 20 -8 20 -6 0 3 -9 10 -20 16
-11 6 -20 8 -20 6z"/>
<path d="M1750 5500 c-9 -6 -10 -10 -3 -10 6 0 15 5 18 10 8 12 4 12 -15 0z"/>
<path d="M1061 5491 c-8 -5 -9 -11 -3 -15 5 -3 12 1 16 9 6 17 6 18 -13 6z"/>
<path d="M2660 5489 c-13 -9 -13 -10 1 -6 11 4 21 -3 29 -19 12 -22 15 -23 31
-8 10 9 19 11 23 6 3 -6 0 -13 -6 -15 -9 -4 -10 -6 -1 -6 17 -1 27 19 15 31
-8 8 -16 7 -28 -2 -14 -12 -18 -11 -32 8 -13 16 -20 19 -32 11z"/>
<path d="M1460 5486 c0 -8 62 -36 70 -31 5 3 11 0 13 -5 3 -6 4 -5 3 2 -1 7
-10 13 -20 13 -9 0 -20 5 -24 10 -7 10 -42 20 -42 11z"/>
<path d="M1550 5481 c0 -6 5 -13 10 -16 6 -4 8 -10 5 -15 -3 -4 2 -13 10 -20
9 -8 15 -8 15 -2 0 6 3 17 6 26 3 9 1 16 -6 16 -6 0 -8 -5 -4 -12 4 -7 3 -8
-4 -4 -7 4 -12 14 -12 22 0 8 -4 14 -10 14 -5 0 -10 -4 -10 -9z"/>
<path d="M1217 5467 c-11 -29 -9 -43 4 -30 6 6 9 19 7 29 -3 18 -4 18 -11 1z"/>
<path d="M1437 5450 c-3 -11 0 -23 5 -27 6 -3 8 -1 4 5 -3 6 -2 13 4 17 12 8
13 25 1 25 -5 0 -11 -9 -14 -20z"/>
<path d="M2277 5446 c-3 -9 -1 -18 5 -22 7 -4 8 -3 4 4 -13 22 11 12 27 -10 9
-13 16 -18 16 -12 1 6 -10 21 -23 33 -20 18 -24 20 -29 7z"/>
<path d="M3282 5433 c7 -18 16 -33 20 -33 13 0 9 13 -12 40 l-20 25 12 -32z"/>
<path d="M1476 5437 c3 -10 9 -15 12 -12 3 3 0 11 -7 18 -10 9 -11 8 -5 -6z"/>
<path d="M1155 5420 c-3 -5 1 -10 10 -10 9 0 13 5 10 10 -3 6 -8 10 -10 10 -2
0 -7 -4 -10 -10z"/>
<path d="M1529 5417 c18 -22 8 -33 -12 -13 -13 14 -15 13 -20 -5 -4 -16 -2
-19 13 -14 14 4 20 -1 25 -24 4 -17 4 -35 0 -41 -3 -5 0 -7 9 -4 11 4 13 11 5
31 -12 32 -12 46 1 38 19 -12 10 12 -12 31 -19 16 -20 16 -9 1z"/>
<path d="M2510 5420 c0 -5 5 -10 11 -10 5 0 7 5 4 10 -3 6 -8 10 -11 10 -2 0
-4 -4 -4 -10z"/>
<path d="M2395 5409 c-9 -14 -2 -20 14 -10 8 6 9 11 3 15 -6 3 -14 1 -17 -5z"/>
<path d="M1206 5395 c-8 -22 -8 -22 8 -28 11 -4 13 0 11 15 -6 28 -11 32 -19
13z"/>
<path d="M2430 5399 c0 -5 5 -7 10 -4 6 3 14 -2 18 -12 4 -10 13 -19 21 -21
11 -2 12 0 3 11 -7 8 -8 18 -4 22 4 5 2 5 -5 1 -6 -3 -14 -2 -18 4 -8 13 -25
13 -25 -1z"/>
<path d="M1620 5390 c0 -5 5 -10 11 -10 5 0 7 5 4 10 -3 6 -8 10 -11 10 -2 0
-4 -4 -4 -10z"/>
<path d="M2410 5386 c0 -3 9 -10 20 -16 11 -6 20 -8 20 -6 0 3 -9 10 -20 16
-11 6 -20 8 -20 6z"/>
<path d="M2613 5375 c0 -8 7 -15 15 -15 12 0 12 3 2 15 -7 8 -13 15 -15 15 -1
0 -2 -7 -2 -15z"/>
<path d="M1436 5367 c3 -10 9 -15 12 -12 3 3 0 11 -7 18 -10 9 -11 8 -5 -6z"/>
<path d="M2738 5352 c20 -22 25 -21 16 2 -3 9 -12 16 -20 16 -11 0 -10 -4 4
-18z"/>
<path d="M3010 5361 c0 -6 4 -13 10 -16 6 -3 7 1 4 9 -7 18 -14 21 -14 7z"/>
<path d="M2670 5317 c0 -8 7 -14 15 -14 11 0 12 4 4 14 -6 7 -13 13 -15 13 -2
0 -4 -6 -4 -13z"/>
<path d="M2717 5299 c7 -7 15 -10 18 -7 3 3 -2 9 -12 12 -14 6 -15 5 -6 -5z"/>
<path d="M2760 5300 c0 -5 5 -10 11 -10 5 0 7 5 4 10 -3 6 -8 10 -11 10 -2 0
-4 -4 -4 -10z"/>
<path d="M2645 5290 c-3 -5 -5 -10 -3 -11 33 -8 38 -7 27 7 -14 17 -16 17 -24
4z"/>
<path d="M2966 5292 c-3 -5 1 -9 9 -9 8 0 12 4 9 9 -3 4 -7 8 -9 8 -2 0 -6 -4
-9 -8z"/>
<path d="M3025 5291 c3 -5 -1 -12 -7 -14 -8 -4 -7 -6 4 -6 23 -1 32 15 12 23
-8 3 -13 2 -9 -3z"/>
<path d="M2808 5281 c17 -10 17 -22 1 -32 -17 -10 -7 -21 13 -14 20 8 11 55
-11 55 -12 0 -13 -2 -3 -9z"/>
<path d="M1244 5269 c-3 -6 -1 -16 5 -22 8 -8 11 -5 11 11 0 24 -5 28 -16 11z"/>
<path d="M2846 5257 c3 -10 9 -15 12 -12 3 3 0 11 -7 18 -10 9 -11 8 -5 -6z"/>
<path d="M2635 5251 c-3 -5 -1 -12 5 -16 5 -3 10 1 10 9 0 18 -6 21 -15 7z"/>
<path d="M3082 5211 c7 -9 13 -18 15 -20 1 -2 1 5 0 16 0 11 -7 20 -14 20 -10
0 -10 -4 -1 -16z"/>
<path d="M1297 5204 c3 -8 10 -13 15 -12 16 6 14 21 -4 24 -11 1 -15 -3 -11
-12z"/>
<path d="M1336 5177 c3 -10 9 -15 12 -12 3 3 0 11 -7 18 -10 9 -11 8 -5 -6z"/>
<path d="M3290 5109 c0 -5 5 -7 10 -4 6 3 10 8 10 11 0 2 -4 4 -10 4 -5 0 -10
-5 -10 -11z"/>
<path d="M1331 5074 c0 -11 3 -14 6 -6 3 7 2 16 -1 19 -3 4 -6 -2 -5 -13z"/>
<path d="M3421 5022 c-2 -19 62 -279 65 -267 2 6 -12 71 -30 145 -19 74 -34
129 -35 122z"/>
<path d="M1395 4997 c-14 -16 -15 -47 -2 -44 6 1 15 -20 19 -48 9 -52 35 -86
49 -63 6 9 11 5 18 -12 5 -14 10 -18 10 -10 1 9 -6 26 -15 38 -8 12 -12 28 -8
35 6 9 3 8 -8 -1 -10 -8 -14 -20 -11 -29 4 -11 2 -14 -5 -9 -15 9 -16 46 -2
46 6 0 10 5 10 11 0 5 -5 7 -11 4 -6 -4 -9 -1 -8 6 1 8 -1 23 -5 34 -19 52
-21 54 -31 42z"/>
<path d="M1495 4780 c10 -11 20 -20 22 -20 2 0 -2 9 -9 20 -7 11 -17 20 -22
20 -5 0 -1 -9 9 -20z"/>
<path d="M1454 4759 c-3 -6 -1 -16 4 -21 8 -8 11 -5 9 11 -1 24 -3 25 -13 10z"/>
<path d="M1483 4711 c1 -12 2 -21 3 -21 1 0 9 3 18 6 18 7 22 34 5 34 -5 0 -7
-6 -3 -12 6 -10 3 -9 -9 0 -14 12 -16 11 -14 -7z"/>
<path d="M3491 4714 c0 -11 3 -14 6 -6 3 7 2 16 -1 19 -3 4 -6 -2 -5 -13z"/>
<path d="M3501 4674 c0 -11 3 -14 6 -6 3 7 2 16 -1 19 -3 4 -6 -2 -5 -13z"/>
<path d="M1520 4670 c0 -5 5 -10 10 -10 6 0 10 5 10 10 0 6 -4 10 -10 10 -5 0
-10 -4 -10 -10z"/>
<path d="M1481 4654 c0 -11 3 -14 6 -6 3 7 2 16 -1 19 -3 4 -6 -2 -5 -13z"/>
<path d="M3511 4634 c0 -11 3 -14 6 -6 3 7 2 16 -1 19 -3 4 -6 -2 -5 -13z"/>
<path d="M1520 4630 c0 -5 5 -10 11 -10 5 0 7 5 4 10 -3 6 -8 10 -11 10 -2 0
-4 -4 -4 -10z"/>
<path d="M3541 4504 c0 -11 3 -14 6 -6 3 7 2 16 -1 19 -3 4 -6 -2 -5 -13z"/>
<path d="M3561 4414 c0 -11 3 -14 6 -6 3 7 2 16 -1 19 -3 4 -6 -2 -5 -13z"/>
<path d="M3571 4374 c0 -11 3 -14 6 -6 3 7 2 16 -1 19 -3 4 -6 -2 -5 -13z"/>
<path d="M3515 3900 c-4 -7 3 -10 19 -8 35 5 45 18 13 18 -14 0 -29 -5 -32
-10z"/>
<path d="M3618 3903 c-16 -2 -28 -9 -28 -15 0 -5 8 -7 17 -4 10 4 14 4 11 0
-4 -4 -3 -15 2 -25 7 -12 6 -19 -3 -22 -6 -3 18 -4 55 -3 37 0 68 4 68 8 0 4
-5 19 -10 33 -9 23 -14 26 -41 20 -22 -5 -29 -4 -25 4 7 11 3 11 -46 4z m57
-32 c3 -5 1 -12 -5 -16 -5 -3 -10 1 -10 9 0 18 6 21 15 7z"/>
<path d="M3140 3878 c0 -4 6 -8 14 -8 8 0 17 4 20 8 2 4 -4 8 -15 8 -10 0 -19
-4 -19 -8z"/>
<path d="M3190 3880 c0 -5 7 -10 15 -10 8 0 15 5 15 10 0 6 -7 10 -15 10 -8 0
-15 -4 -15 -10z"/>
<path d="M3448 3883 c6 -2 18 -2 25 0 6 3 1 5 -13 5 -14 0 -19 -2 -12 -5z"/>
<path d="M2819 3865 c-3 -2 -74 -9 -159 -13 -99 -6 -155 -13 -158 -21 -2 -6
-8 -11 -13 -11 -6 0 -7 5 -4 10 8 13 -2 13 -28 -2 -21 -11 -20 -12 18 -19 23
-4 51 -2 65 4 14 6 82 14 152 17 103 4 131 8 145 23 15 14 15 17 2 17 -9 0
-18 -2 -20 -5z"/>
<path d="M2870 3850 c-22 -22 -26 -40 -9 -40 6 0 9 -7 5 -15 -4 -12 3 -15 41
-12 28 2 48 8 51 17 3 9 -1 11 -11 7 -9 -3 -17 -1 -20 6 -2 6 -18 10 -36 9
-58 -4 -23 16 49 28 39 6 70 14 70 16 0 2 -27 4 -60 4 -47 0 -64 -4 -80 -20z"/>
<path d="M3199 3855 c-40 -9 -43 -11 -28 -26 25 -25 47 -30 51 -11 3 10 15 18
26 19 26 2 29 -14 5 -20 -10 -3 3 -5 30 -6 44 -1 47 1 47 24 0 14 -3 25 -7 26
-47 4 -87 2 -124 -6z"/>
<path d="M3490 3861 c0 -5 -7 -17 -16 -25 -14 -15 -12 -16 28 -15 24 1 35 3
26 6 -10 2 -18 11 -18 18 0 8 -4 17 -10 20 -5 3 -10 2 -10 -4z"/>
<path d="M2040 3840 c0 -5 4 -10 9 -10 6 0 13 5 16 10 3 6 -1 10 -9 10 -9 0
-16 -4 -16 -10z"/>
<path d="M3116 3842 c-3 -5 1 -9 9 -9 8 0 15 4 15 9 0 4 -4 8 -9 8 -6 0 -12
-4 -15 -8z"/>
<path d="M2345 3833 c-11 -3 -24 -9 -29 -14 -6 -5 -18 -9 -29 -9 -10 0 -15 -5
-12 -10 14 -22 119 -1 129 26 6 14 -17 17 -59 7z"/>
<path d="M2984 3832 c-15 -10 -14 -42 2 -42 25 0 61 19 67 34 5 13 -1 16 -26
16 -18 0 -37 -4 -43 -8z"/>
<path d="M1683 3822 c-31 -5 -30 -32 1 -32 27 0 44 17 30 29 -5 4 -19 5 -31 3z"/>
<path d="M3084 3813 c2 -9 8 -19 15 -21 10 -3 10 0 2 17 -14 25 -20 27 -17 4z"/>
<path d="M3383 3813 c9 -2 23 -2 30 0 6 3 -1 5 -18 5 -16 0 -22 -2 -12 -5z"/>
<path d="M2063 3794 c-18 -8 -16 -43 2 -50 8 -4 26 -3 40 0 20 5 23 10 16 29
-8 22 -34 31 -58 21z"/>
<path d="M1930 3780 c0 -5 12 -10 28 -9 24 0 25 1 7 9 -27 12 -35 12 -35 0z"/>
<path d="M1760 3760 c-30 -30 -25 -35 30 -32 27 2 50 6 50 9 0 7 -43 42 -52
43 -5 0 -17 -9 -28 -20z"/>
<path d="M2778 3773 c7 -3 16 -2 19 1 4 3 -2 6 -13 5 -11 0 -14 -3 -6 -6z"/>
<path d="M2818 3773 c6 -2 18 -2 25 0 6 3 1 5 -13 5 -14 0 -19 -2 -12 -5z"/>
<path d="M2158 3763 c6 -2 18 -2 25 0 6 3 1 5 -13 5 -14 0 -19 -2 -12 -5z"/>
<path d="M1625 3753 c-11 -2 -30 -6 -42 -9 -15 -3 -23 -12 -23 -24 0 -12 -7
-20 -17 -20 -10 0 -13 -3 -7 -9 12 -12 127 12 132 27 2 7 -4 15 -13 18 -13 5
-14 8 -3 15 14 9 7 10 -27 2z"/>
<path d="M1893 3743 c9 -2 23 -2 30 0 6 3 -1 5 -18 5 -16 0 -22 -2 -12 -5z"/>
<path d="M3738 3743 c6 -2 18 -2 25 0 6 3 1 5 -13 5 -14 0 -19 -2 -12 -5z"/>
<path d="M2188 3733 c6 -2 18 -2 25 0 6 3 1 5 -13 5 -14 0 -19 -2 -12 -5z"/>
<path d="M2070 3720 c-10 -6 3 -7 40 -3 30 3 57 7 59 9 10 9 -85 3 -99 -6z"/>
<path d="M3077 3723 c-4 -3 -7 -11 -7 -17 0 -6 5 -5 12 2 6 6 9 14 7 17 -3 3
-9 2 -12 -2z"/>
<path d="M1958 3713 c7 -3 16 -2 19 1 4 3 -2 6 -13 5 -11 0 -14 -3 -6 -6z"/>
<path d="M1699 3676 c8 -9 21 -14 29 -11 8 3 21 0 28 -6 9 -8 14 -8 14 -1 0
14 -8 18 -50 27 -32 7 -33 6 -21 -9z"/>
<path d="M3251 3357 c-1 -22 109 -360 115 -354 2 2 -21 82 -51 178 -66 207
-63 199 -64 176z"/>
<path d="M3201 3301 c-35 -32 -35 -34 -20 -62 14 -27 29 -15 29 23 0 17 7 40
17 50 25 28 9 21 -26 -11z"/>
<path d="M3310 2980 c0 -11 -4 -20 -10 -20 -5 0 -10 -11 -10 -25 0 -16 6 -25
15 -25 8 0 15 -6 16 -12 1 -17 18 23 18 42 0 10 -4 8 -10 -5 -6 -14 -7 -8 -3
23 4 27 2 42 -5 42 -6 0 -11 -9 -11 -20z"/>
<path d="M3376 2965 c2 -11 4 -24 4 -28 0 -5 5 -5 10 -2 7 4 9 -2 4 -18 -3
-14 -1 -34 5 -44 8 -15 10 -12 6 15 -3 25 0 32 13 33 11 0 12 2 4 6 -6 2 -10
8 -7 13 3 5 -3 11 -14 15 -11 3 -22 11 -24 18 -2 7 -3 3 -1 -8z"/>
<path d="M3428 2833 c12 -2 32 -2 45 0 12 2 2 4 -23 4 -25 0 -35 -2 -22 -4z"/>
<path d="M3450 2726 c0 -31 6 -34 13 -6 3 11 1 23 -4 26 -5 3 -9 -6 -9 -20z"/>
<path d="M3490 2710 c-8 -5 -12 -12 -9 -15 4 -3 12 1 19 10 14 17 11 19 -10 5z"/>
<path d="M3661 1904 c0 -11 3 -14 6 -6 3 7 2 16 -1 19 -3 4 -6 -2 -5 -13z"/>
<path d="M3078 1423 c7 -3 16 -2 19 1 4 3 -2 6 -13 5 -11 0 -14 -3 -6 -6z"/>
<path d="M2898 1373 c7 -3 16 -2 19 1 4 3 -2 6 -13 5 -11 0 -14 -3 -6 -6z"/>
<path d="M2815 1355 c-39 -14 -40 -14 -5 -8 41 7 82 22 60 22 -8 0 -33 -7 -55
-14z"/>
<path d="M2690 1320 c-30 -10 -50 -18 -45 -19 6 0 37 8 70 18 33 11 53 19 45
19 -8 1 -40 -7 -70 -18z"/>
<path d="M2608 1293 c7 -3 16 -2 19 1 4 3 -2 6 -13 5 -11 0 -14 -3 -6 -6z"/>
<path d="M2568 1283 c7 -3 16 -2 19 1 4 3 -2 6 -13 5 -11 0 -14 -3 -6 -6z"/>
<path d="M2498 1263 c7 -3 16 -2 19 1 4 3 -2 6 -13 5 -11 0 -14 -3 -6 -6z"/>
<path d="M2435 1250 c-13 -5 -14 -9 -5 -9 8 0 24 4 35 9 13 5 14 9 5 9 -8 0
-24 -4 -35 -9z"/>
<path d="M2345 1225 c-39 -14 -40 -14 -5 -8 41 7 82 22 60 22 -8 0 -33 -7 -55
-14z"/>
<path d="M2167 1178 c-59 -17 -106 -32 -104 -35 4 -4 228 56 236 63 10 9 -31
1 -132 -28z"/>
<path d="M2000 1130 c-20 -6 -21 -8 -5 -8 11 0 29 3 40 8 25 11 -1 11 -35 0z"/>
<path d="M2020 422 c0 -5 -10 -12 -22 -15 -12 -4 -19 -9 -16 -12 3 -4 19 0 34
8 17 9 23 17 15 21 -6 4 -11 3 -11 -2z"/>
</g>
</svg>
