<?xml version="1.0" standalone="no"?>
<!DOCTYPE svg PUBLIC "-//W3C//DTD SVG 20010904//EN"
 "http://www.w3.org/TR/2001/REC-SVG-20010904/DTD/svg10.dtd">
<svg version="1.0" xmlns="http://www.w3.org/2000/svg"
 width="1440.000000pt" height="800.000000pt" viewBox="0 0 1440.000000 800.000000"
 preserveAspectRatio="xMidYMid meet">

<g transform="translate(0.000000,800.000000) scale(0.100000,-0.100000)"
fill="#000000" stroke="none">
<path d="M11092 4271 c-7 -4 -15 -31 -19 -61 -4 -37 -3 -51 5 -46 16 9 113
-13 142 -33 14 -10 56 -32 93 -48 37 -16 64 -33 60 -37 -4 -4 1 -4 11 0 12 5
17 4 13 -3 -4 -6 3 -8 18 -5 15 2 25 0 25 -7 0 -6 17 -11 39 -11 21 0 60 -10
86 -21 44 -20 54 -20 129 -10 145 21 296 57 307 74 4 5 8 4 11 -3 3 -9 19 -5
56 14 59 30 72 32 72 11 0 -8 -6 -15 -13 -15 -22 0 -150 -67 -182 -95 -17 -14
-42 -33 -57 -41 -52 -27 -28 -23 38 6 36 17 76 30 87 29 21 -1 21 -1 2 -8 -11
-4 -36 -14 -55 -23 -19 -9 -71 -33 -115 -53 -44 -20 -87 -43 -97 -51 -9 -9
-22 -13 -29 -8 -8 4 -10 3 -5 -4 5 -8 -1 -12 -17 -12 -14 0 -27 -7 -31 -15 -3
-8 -12 -12 -21 -9 -8 3 -15 1 -15 -5 0 -6 -15 -18 -32 -26 -18 -9 -44 -22 -58
-30 -13 -8 -26 -13 -27 -11 -8 7 27 58 57 84 18 17 30 34 26 40 -8 14 -98 7
-130 -9 -17 -10 -19 -9 -8 2 6 7 12 16 12 20 0 12 -32 20 -44 11 -6 -5 -18 -9
-26 -9 -8 0 -27 -4 -42 -8 -37 -10 -35 -2 5 25 29 20 30 21 7 17 -14 -3 -36
-9 -50 -13 -21 -6 -23 -5 -13 8 11 12 7 17 -20 30 -18 9 -46 13 -64 11 -18 -3
-40 -2 -49 1 -16 6 -16 8 0 24 26 29 19 40 -30 48 -31 4 -42 9 -33 15 10 6 6
9 -12 9 -24 0 -26 -3 -23 -37 2 -29 -3 -42 -22 -60 l-25 -23 7 38 c4 20 10 42
15 48 5 6 6 14 2 18 -4 3 6 20 22 36 24 26 26 30 11 36 -12 5 -14 10 -5 20 7
9 7 19 0 31 -9 16 -11 15 -20 -10 -6 -16 -11 -36 -11 -45 0 -9 -11 -69 -24
-132 -14 -63 -22 -117 -20 -119 2 -2 4 1 4 7 0 7 4 12 10 12 5 0 4 -16 -4 -37
-7 -21 -11 -50 -9 -65 3 -20 -1 -28 -12 -28 -18 0 -21 -20 -2 -20 6 -1 1 -7
-12 -14 -17 -10 -20 -15 -10 -19 11 -4 10 -8 -6 -21 -12 -9 -15 -15 -7 -16 7
0 10 -5 7 -10 -4 -6 -12 -7 -18 -4 -7 4 -8 3 -4 -2 5 -5 13 -10 18 -10 32 -5
28 -8 -16 -13 -45 -5 -50 -8 -50 -31 0 -15 -8 -29 -20 -34 -19 -9 -19 -10 5
-14 32 -5 46 -17 22 -19 -10 -1 -35 -11 -55 -23 -32 -19 -35 -23 -22 -37 8 -8
15 -20 15 -28 0 -7 3 -15 8 -18 4 -2 0 -1 -8 2 -28 9 -80 5 -93 -9 -10 -10 -9
-11 3 -5 13 8 13 6 1 -8 -7 -9 -11 -30 -9 -46 2 -17 1 -28 -2 -26 -4 3 -19
-24 -34 -60 -25 -57 -31 -64 -59 -68 -21 -2 -14 -4 18 -5 28 0 70 -5 95 -10
93 -20 276 -64 295 -72 11 -5 38 -11 60 -15 22 -3 76 -17 120 -30 44 -12 132
-35 195 -49 126 -29 212 -52 249 -67 23 -9 23 -10 5 -24 -18 -13 -18 -14 9
-24 37 -15 33 -46 -6 -45 -30 0 -33 -6 -15 -24 7 -7 9 -12 6 -12 -4 0 -14 7
-22 16 -17 16 -66 29 -66 17 0 -3 8 -16 17 -27 10 -12 11 -15 3 -8 -8 6 -22
12 -32 12 -10 0 -18 5 -18 10 0 6 -10 10 -22 10 -17 0 -19 -3 -10 -12 7 -7 12
-15 12 -18 0 -11 -49 -10 -56 2 -5 8 -2 9 9 5 10 -3 17 -2 17 3 0 8 -58 6
-112 -5 -10 -2 -18 1 -18 7 0 5 -4 7 -9 4 -5 -4 -11 -1 -13 4 -2 6 -24 12 -49
13 -30 1 -45 6 -42 13 8 22 -156 10 -212 -15 -30 -13 -56 -19 -69 -14 -12 3
-34 6 -51 5 -26 -1 -27 0 -10 8 14 6 -1 8 -50 7 -38 -1 -76 -6 -82 -10 -7 -5
-13 -5 -13 0 0 17 19 37 47 48 26 12 26 13 8 20 -11 3 -27 10 -35 14 -20 9
-89 7 -119 -3 -13 -4 -21 -4 -18 0 3 5 -18 9 -46 8 -81 -1 -82 -1 -66 -21 13
-17 12 -17 -4 -4 -17 14 -17 16 -3 27 9 6 16 14 16 18 0 11 -28 6 -32 -6 -3
-8 -28 -12 -70 -13 -49 0 -64 3 -61 12 6 16 14 16 49 3 19 -8 30 -8 38 0 7 7
2 10 -16 10 -15 0 -38 4 -52 10 -22 8 -26 7 -27 -8 0 -14 -2 -14 -9 3 -9 19
-9 19 -16 -2 -3 -13 -11 -23 -16 -23 -5 0 -6 5 -3 10 4 7 -3 8 -21 4 -19 -5
-25 -4 -20 5 8 12 -10 16 -59 12 -29 -3 -30 -3 -11 18 18 20 18 20 -18 10 -20
-6 -43 -6 -53 -1 -10 4 -47 7 -83 7 -36 -1 -77 2 -92 6 -18 5 -28 3 -31 -4 -3
-9 -8 -9 -19 0 -8 7 -18 10 -21 7 -4 -4 -17 -8 -30 -9 -28 -3 -77 -33 -77 -46
0 -5 -7 -9 -17 -9 -9 0 -13 -3 -10 -7 4 -3 2 -12 -4 -19 -7 -8 -7 -14 1 -19
11 -7 -11 -35 -28 -35 -5 0 -12 -9 -15 -20 -3 -11 -13 -20 -24 -19 -17 0 -17
1 1 8 14 5 16 10 8 15 -9 5 -7 15 8 36 24 34 25 40 5 40 -8 0 -15 -5 -15 -12
0 -6 -9 -21 -20 -33 -17 -18 -18 -26 -9 -58 15 -56 32 -67 101 -67 50 0 67 5
94 25 25 19 45 25 83 25 l51 0 0 -69 c0 -39 5 -73 10 -76 6 -3 10 -28 10 -56
0 -50 -33 -357 -50 -464 -5 -33 -17 -150 -25 -260 -14 -183 -29 -287 -55 -374
-5 -19 -7 -37 -5 -41 4 -7 91 3 99 11 2 2 13 38 24 79 46 170 84 411 98 618 4
64 11 102 18 102 23 0 768 -159 774 -165 3 -3 8 -79 9 -168 2 -89 6 -177 9
-194 5 -31 8 -33 43 -33 62 0 65 8 59 204 l-6 173 66 -14 c36 -7 68 -16 71
-18 2 -3 -2 -187 -9 -409 -7 -222 -10 -420 -6 -440 4 -20 15 -40 26 -46 26
-14 65 -13 78 3 6 6 14 73 18 147 4 74 12 151 19 170 8 23 9 44 3 62 -10 30
16 357 30 368 14 13 628 150 668 150 34 0 43 -4 52 -25 7 -14 12 -46 12 -71 0
-63 56 -394 81 -477 16 -54 25 -70 45 -77 36 -14 82 -12 87 3 2 6 -11 70 -29
140 -34 130 -48 229 -59 417 -4 58 -18 160 -31 226 -28 141 -30 244 -9 449 19
178 25 215 79 471 24 116 56 282 71 370 30 183 49 251 145 515 75 205 82 239
50 239 -13 0 -17 -5 -14 -14 4 -11 0 -13 -16 -9 -16 4 -18 8 -8 14 9 6 5 9
-12 8 -14 0 -38 -11 -55 -24 -16 -14 -24 -25 -17 -25 10 0 9 -4 -2 -16 -9 -8
-14 -20 -11 -25 4 -5 1 -9 -4 -9 -6 0 -11 7 -11 15 0 24 -107 72 -180 81 -14
1 -43 8 -65 14 -22 6 -128 13 -235 17 -190 6 -336 -3 -509 -29 l-74 -11 67
-34 c36 -18 66 -35 66 -37 0 -3 -39 13 -87 35 -56 26 -97 39 -114 37 -23 -4
-26 -2 -19 11 16 29 -66 82 -98 62z m1110 -124 c4 -7 7 -16 7 -22 0 -5 -3 -4
-6 3 -12 29 -42 33 -85 11 -24 -12 -44 -21 -46 -20 -1 1 -23 -7 -48 -19 -26
-11 -48 -20 -50 -20 -2 0 -32 -13 -66 -30 -34 -16 -71 -30 -82 -29 -14 0 -16
2 -6 6 8 3 61 27 117 54 57 27 108 49 115 49 7 0 31 9 53 20 41 19 84 18 97
-3z m-757 -37 c3 -6 -1 -7 -9 -4 -18 7 -21 14 -7 14 6 0 13 -4 16 -10z m777
-25 c3 -13 1 -22 -3 -19 -9 5 -13 44 -5 44 2 0 6 -11 8 -25z m-2 -65 c0 -5 -4
-10 -10 -10 -5 0 -10 5 -10 10 0 6 5 10 10 10 6 0 10 -4 10 -10z m-1075 -70
c3 -5 1 -10 -4 -10 -6 0 -11 5 -11 10 0 6 2 10 4 10 3 0 8 -4 11 -10z m1068
-10 c4 -16 0 -20 -16 -19 -12 0 -16 3 -9 6 6 2 12 11 12 19 0 20 7 17 13 -6z
m-1469 -705 c-4 -8 -11 -15 -16 -15 -6 0 -5 6 2 15 7 8 14 15 16 15 2 0 1 -7
-2 -15z m-37 -57 c-3 -8 -6 -5 -6 6 -1 11 2 17 5 13 3 -3 4 -12 1 -19z m20
-304 c-3 -3 -12 -4 -19 -1 -8 3 -5 6 6 6 11 1 17 -2 13 -5z m-120 -10 c-3 -3
-12 -4 -19 -1 -8 3 -5 6 6 6 11 1 17 -2 13 -5z m798 -114 c-3 -5 -14 -10 -23
-9 -14 0 -13 2 3 9 27 11 27 11 20 0z m308 -104 c44 -22 48 -30 10 -22 -16 3
-50 6 -78 6 -27 0 -61 0 -75 0 -14 0 -34 2 -45 4 -11 3 -29 5 -39 5 -35 2 -8
13 46 20 85 11 140 7 181 -13z m82 -44 c-3 -3 -11 0 -18 7 -9 10 -8 11 6 5 10
-3 15 -9 12 -12z"/>
<path d="M11938 4253 c6 -2 18 -2 25 0 6 3 1 5 -13 5 -14 0 -19 -2 -12 -5z"/>
<path d="M11157 4094 c-14 -15 -6 -33 21 -46 26 -14 27 -13 27 17 0 23 -5 31
-20 33 -12 2 -24 0 -28 -4z"/>
<path d="M11340 4000 c14 -4 32 -8 40 -9 13 -1 13 0 0 9 -8 5 -26 9 -40 9
l-25 -1 25 -8z"/>
<path d="M11895 3974 c-16 -8 -34 -20 -40 -26 -5 -5 9 -1 33 11 23 12 42 24
42 26 0 7 -2 7 -35 -11z"/>
<path d="M11820 3915 c-7 -9 -8 -15 -2 -15 5 0 12 7 16 15 3 8 4 15 2 15 -2 0
-9 -7 -16 -15z"/>
<path d="M10940 3670 c-6 -11 -8 -20 -6 -20 3 0 10 9 16 20 6 11 8 20 6 20 -3
0 -10 -9 -16 -20z"/>
<path d="M9809 2953 c-13 -16 -12 -17 4 -4 16 13 21 21 13 21 -2 0 -10 -8 -17
-17z"/>
<path d="M9740 2910 c-12 -8 -11 -10 8 -10 12 0 22 5 22 10 0 13 -11 13 -30 0z"/>
</g>
</svg>
